<?xml version="1.0"?>
<svg xmlns="http://www.w3.org/2000/svg" xmlns:xlink="http://www.w3.org/1999/xlink" xmlns:svgjs="http://svgjs.com/svgjs" version="1.1" width="512" height="512" x="0" y="0" viewBox="0 0 256 256" style="enable-background:new 0 0 512 512" xml:space="preserve" class=""><g><g xmlns="http://www.w3.org/2000/svg"><path d="m158.571 191.538 1.174 37.418h-10.559c-2.859 0-5.177 2.31-5.177 5.169s2.318 5.177 5.177 5.177h16.757v-.031c4.064-.328 5.215-3.888 5.215-8.249l2.449-87.824c0-4.571-3.706-8.276-8.277-8.276s-8.277 3.706-8.277 8.276l1.05 33.466z" fill="#87796f" data-original="#87796f" style="" class=""/><path d="m165.944 240.802h-16.757c-3.682 0-6.677-2.995-6.677-6.677 0-3.678 2.995-6.669 6.677-6.669h9.011l-1.125-35.871c-.026-.828.624-1.52 1.452-1.546.796-.032 1.52.624 1.546 1.452l1.174 37.418c.013.406-.139.799-.422 1.091s-.671.456-1.077.456h-10.559c-2.027 0-3.677 1.646-3.677 3.669 0 2.027 1.649 3.677 3.677 3.677h16.457c.059-.012.119-.021.18-.026 1.786-.144 3.835-1.042 3.835-6.754l2.449-87.866c-.001-3.694-3.041-6.734-6.777-6.734s-6.776 3.04-6.776 6.776l1.05 33.418c.026.828-.625 1.52-1.453 1.546-.016.001-.032.001-.048.001-.807 0-1.473-.641-1.498-1.453l-1.05-33.465c-.001-5.438 4.385-9.823 9.775-9.823 5.391 0 9.777 4.386 9.777 9.776l-2.449 87.866c.001 7.309-3.341 9.322-6.279 9.671-.138.043-.285.067-.436.067z" fill="#3a312a" data-original="#3a312a" style="" class=""/><path d="m158.571 191.538.848 27.064h12.084l2.104-75.401c0-4.574-3.705-8.28-8.28-8.28-4.567 0-8.272 3.706-8.272 8.28l1.049 33.462z" fill="#e9a1a8" data-original="#e96c7a" style="" class=""/><path d="m171.503 220.102h-12.084c-.81 0-1.474-.643-1.499-1.453l-.848-27.064c-.026-.828.624-1.52 1.452-1.546.796-.032 1.52.624 1.546 1.452l.802 25.611h9.172l2.063-73.943c0-3.696-3.042-6.738-6.78-6.738-3.734 0-6.772 3.041-6.772 6.78l1.048 33.414c.026.828-.624 1.52-1.452 1.546-.016.001-.032.001-.048.001-.807 0-1.473-.641-1.498-1.453l-1.049-33.462c-.001-5.439 4.383-9.827 9.771-9.827 5.393 0 9.78 4.387 9.78 9.78l-2.105 75.443c-.022.813-.687 1.459-1.499 1.459z" fill="#3a312a" data-original="#3a312a" style="" class=""/><path d="m228.075 228.346-6.36-16.2-11.452 5.711c-.09.06-.178.123-.273.178l6.334 14.101c1.98 4.2 3.68 7.33 6.49 7.16 1.14 0 1.77-.24 2.88-.7 4.601-1.88 4.271-5.65 2.381-10.25z" fill="#87796f" data-original="#87796f" style="" class=""/><path d="m222.505 240.806c-3.752 0-5.759-4.26-7.537-8.03l-6.345-14.126c-.313-.697-.052-1.518.605-1.906l.212-.141c.049-.032.101-.061.153-.088l11.452-5.711c.376-.188.814-.21 1.208-.058.393.151.705.46.858.852l6.355 16.189c1.028 2.505 2.059 5.728.912 8.467-.686 1.64-2.071 2.895-4.117 3.731-1.211.502-2.029.811-3.447.811-.103.007-.207.01-.309.01zm-10.571-22.105 5.759 12.821c1.953 4.142 3.336 6.364 5.032 6.277.94-.003 1.346-.153 2.396-.588 1.306-.534 2.119-1.225 2.491-2.115.556-1.328.262-3.292-.924-6.179-.003-.007-.006-.015-.009-.022l-5.761-14.675z" fill="#3a312a" data-original="#3a312a" style="" class=""/><path d="m221.714 212.148-11.73 5.85-41.82-93.07c-1.89-4.6.31-9.85 4.91-11.74 4.6-1.88 9.86.32 11.74 4.92z" fill="#e9a1a8" data-original="#f16c7a" style="" class=""/><path d="m209.984 219.499c-.17 0-.341-.029-.504-.087-.385-.137-.696-.425-.864-.798l-41.82-93.07c-2.218-5.396.351-11.541 5.708-13.742 2.598-1.063 5.453-1.049 8.04.034 2.588 1.084 4.598 3.111 5.659 5.706l36.908 94.059c.284.723-.032 1.543-.727 1.89l-11.73 5.85c-.21.105-.44.158-.67.158zm-33.507-105.481c-.946 0-1.907.179-2.836.559-3.824 1.571-5.66 5.96-4.09 9.781l41.161 91.601 9.105-4.54-36.399-92.762c-1.179-2.884-3.984-4.639-6.941-4.639z" fill="#3a312a" data-original="#3a312a" style="" class=""/><path d="m151.467 94.268-7.025 16.36-28.78 5.203c-3.269.569-5.462 3.664-4.903 6.932.439 2.565 2.45 4.465 4.872 4.894.66.117 1.358.129 2.06.009l31.591-5.693c1.776-.306 3.32-1.393 4.206-2.962l8.426-18.839z" fill="#e9a1a8" data-original="#f16c7a" style="" class=""/><path d="m116.688 129.249c-.44 0-.88-.039-1.318-.116-3.109-.55-5.556-3.008-6.089-6.117-.696-4.068 2.051-7.954 6.125-8.663l27.976-5.057 6.707-15.619c.168-.392.495-.693.899-.83s.846-.094 1.217.115l10.448 5.903c.674.381.948 1.212.631 1.919l-8.426 18.839c-.019.043-.04.084-.063.125-1.113 1.969-3.029 3.319-5.258 3.702l-31.58 5.691c-.423.072-.846.108-1.269.108zm35.497-32.852-6.365 14.823c-.199.462-.616.795-1.112.884l-28.779 5.203c-2.457.428-4.109 2.761-3.691 5.203.32 1.865 1.789 3.339 3.655 3.669.517.091 1.038.094 1.547.008l31.577-5.691c1.327-.229 2.462-1.016 3.134-2.167l7.838-17.523zm-7.744 14.231h.01z" fill="#3a312a" data-original="#3a312a" style="" class=""/><path d="m123.014 126.702-5.32.96c-.7.12-1.4.11-2.06-.01-2.42-.42-4.44-2.32-4.87-4.89-.56-3.27 1.63-6.36 4.9-6.93l5.27-.95z" fill="#f5e1c5" data-original="#f5e1c5" style=""/><path d="m116.688 129.248c-.443 0-.884-.04-1.322-.119-3.112-.54-5.56-3-6.082-6.119-.695-4.06 2.05-7.945 6.122-8.655l5.262-.948c.392-.072.797.017 1.125.246.327.228.55.577.619.97l2.081 11.82c.143.813-.398 1.589-1.211 1.736l-5.32.96c-.427.072-.851.109-1.274.109zm3.029-12.622-3.788.683c-2.455.428-4.106 2.761-3.688 5.201.313 1.871 1.778 3.341 3.648 3.666.521.095 1.04.098 1.549.009l3.838-.692z" fill="#3a312a" data-original="#3a312a" style="" class=""/><path d="m184.609 97.905c-3.226-11.184-14.907-17.636-26.092-14.411-11.184 3.226-17.636 14.908-14.411 26.092l13.294 46.095 40.503-11.681z" fill="#e9a1a8" data-original="#f16c7a" style="" class=""/><path d="m157.4 157.182c-.651 0-1.251-.428-1.441-1.085l-13.294-46.095c-3.449-11.961 3.475-24.499 15.437-27.949 11.962-3.448 24.499 3.475 27.949 15.437l13.294 46.095c.229.796-.23 1.627-1.026 1.857l-40.502 11.681c-.139.04-.279.059-.417.059zm6.95-73.015c-1.792 0-3.612.248-5.418.769-10.372 2.991-16.376 13.863-13.385 24.235l12.878 44.654 37.62-10.85-12.878-44.654c-2.469-8.567-10.316-14.154-18.817-14.154z" fill="#3a312a" data-original="#3a312a" style="" class=""/><path d="m170.451 102.78-4.047 17.338-27.42 10.171c-3.119 1.134-4.735 4.566-3.611 7.684.883 2.449 3.195 3.966 5.655 3.963.67-.001 1.36-.112 2.03-.353l30.103-11.147c1.694-.612 3.024-1.954 3.621-3.654l4.991-20.025z" fill="#e9a1a8" data-original="#f16c7a" style="" class=""/><path d="m141.02 143.436c-3.154 0-5.99-1.99-7.059-4.955-1.399-3.883.624-8.19 4.51-9.603l26.656-9.888 3.863-16.553c.189-.807.999-1.305 1.802-1.12.807.188 1.308.995 1.12 1.802l-4.046 17.338c-.115.49-.467.891-.939 1.065l-27.421 10.171c-2.344.852-3.561 3.439-2.721 5.77.642 1.778 2.344 2.972 4.236 2.972h.005c.526-.001 1.039-.09 1.524-.264l30.089-11.143c1.267-.458 2.246-1.432 2.706-2.683l4.972-19.952c.2-.804 1.014-1.291 1.818-1.093.804.2 1.293 1.015 1.093 1.818l-4.991 20.025c-.011.045-.025.09-.04.135-.75 2.134-2.4 3.799-4.527 4.567l-30.091 11.144c-.824.296-1.677.444-2.549.446-.003.001-.007.001-.01.001z" fill="#3a312a" data-original="#3a312a" style="" class=""/><path d="m143.056 141.588c-.67.24-1.356.348-2.031.35-2.46.003-4.767-1.521-5.648-3.964-1.133-3.12.491-6.555 3.601-7.685l4.986-1.853 4.163 11.275z" fill="#f5e1c5" data-original="#f5e1c5" style=""/><path d="m141.02 143.439c-3.152 0-5.985-1.99-7.055-4.955-1.409-3.881.609-8.19 4.501-9.604l4.976-1.849c.373-.139.787-.123 1.148.043.362.167.643.47.781.844l4.164 11.275c.287.777-.11 1.639-.887 1.926l-5.072 1.876c-.005.002-.01.004-.016.006-.806.288-1.658.436-2.531.438-.003 0-.006 0-.009 0zm2.036-1.851h.01zm.022-11.222-3.577 1.329c-2.347.853-3.56 3.439-2.714 5.768.643 1.782 2.342 2.976 4.23 2.976h.005c.527-.002 1.039-.089 1.521-.261l3.658-1.353z" fill="#3a312a" data-original="#3a312a" style="" class=""/><ellipse cx="165.191" cy="29.946" fill="#87796f" rx="13.5" ry="13.5" transform="matrix(.459 -.888 .888 .459 62.734 162.94)" data-original="#87796f" style="" class=""/><path d="m165.2 44.948c-6.403 0-12.347-4.136-14.338-10.564-2.446-7.901 1.992-16.32 9.892-18.766 3.827-1.185 7.886-.809 11.432 1.06 3.544 1.868 6.149 5.005 7.334 8.833 2.446 7.901-1.992 16.319-9.892 18.766-1.472.454-2.962.671-4.428.671zm.006-27.008c-1.193 0-2.392.18-3.564.543-6.321 1.956-9.871 8.691-7.914 15.012 1.957 6.32 8.69 9.87 15.012 7.914 6.321-1.957 9.871-8.692 7.914-15.012-.948-3.062-3.032-5.572-5.867-7.066-1.75-.923-3.657-1.391-5.581-1.391z" fill="#3a312a" data-original="#3a312a" style="" class=""/><path clip-rule="evenodd" d="m135.866 64.533c.762 2.462-.616 5.076-3.08 5.838-2.463.763-5.078-.615-5.84-3.076-.762-2.462.617-5.076 3.08-5.838 2.463-.763 5.077.614 5.84 3.076z" fill="#f4e0c4" fill-rule="evenodd" data-original="#f4e0c4" style=""/><path d="m131.397 72.084c-.988 0-1.968-.24-2.868-.714-1.458-.768-2.529-2.058-3.016-3.631-1.005-3.248.82-6.709 4.069-7.715 1.574-.487 3.243-.333 4.701.435s2.529 2.058 3.016 3.631c1.005 3.248-.82 6.709-4.069 7.715-.603.186-1.22.279-1.833.279zm.014-9.338c-.315 0-.632.047-.941.143-1.669.517-2.607 2.294-2.09 3.961.25.808.8 1.47 1.548 1.864.749.394 1.605.475 2.415.223 1.669-.517 2.607-2.294 2.09-3.961-.25-.808-.8-1.47-1.548-1.864-.463-.242-.966-.366-1.474-.366z" fill="#3a312a" data-original="#3a312a" style="" class=""/><path clip-rule="evenodd" d="m174.792 52.48c.762 2.462-.616 5.076-3.079 5.839s-5.078-.615-5.84-3.077.617-5.076 3.079-5.838c2.463-.763 5.077.614 5.84 3.076z" fill="#f4e0c4" fill-rule="evenodd" data-original="#f4e0c4" style=""/><path d="m170.323 60.03c-.989 0-1.968-.24-2.868-.713-1.458-.768-2.529-2.058-3.016-3.631-1.005-3.248.82-6.709 4.069-7.715 1.576-.487 3.243-.333 4.701.435s2.529 2.058 3.016 3.631c1.005 3.248-.82 6.709-4.069 7.715-.603.186-1.22.278-1.833.278zm.014-9.337c-.315 0-.632.047-.942.143-1.669.517-2.607 2.294-2.09 3.961.25.808.8 1.47 1.548 1.864.749.395 1.608.475 2.415.223 1.669-.517 2.607-2.294 2.09-3.961-.25-.808-.8-1.47-1.548-1.864-.461-.243-.965-.366-1.473-.366z" fill="#3a312a" data-original="#3a312a" style="" class=""/><path d="m169.971 51.603c1.902 6.143 1.045 15.173-1.723 22.401-2.143 5.611-5.438 10.134-9.481 11.385-3.982 1.233-9.443-.806-14.55-4.415-6.23-4.4-11.931-11.135-13.787-17.128-3.379-10.914 2.729-22.503 13.651-25.885 10.918-3.38 22.51 2.728 25.89 13.642z" fill="#f4e0c4" data-original="#f4e0c4" style=""/><g fill="#3a312a"><path d="m156.198 87.259c-4.862 0-9.952-3.013-12.847-5.059-6.849-4.837-12.483-11.868-14.354-17.91-3.619-11.687 2.949-24.141 14.641-27.762 11.693-3.618 24.147 2.943 27.767 14.63 1.924 6.217 1.219 15.613-1.756 23.382-2.528 6.618-6.235 10.98-10.438 12.282-.98.304-1.992.437-3.013.437zm-6.004-48.725c-1.877 0-3.784.277-5.669.861-10.112 3.131-15.792 13.901-12.662 24.008 1.662 5.367 6.974 11.936 13.219 16.347 5.119 3.617 10.071 5.19 13.241 4.206 3.256-1.008 6.363-4.83 8.523-10.487 2.753-7.19 3.433-15.798 1.692-21.422-2.546-8.224-10.152-13.513-18.344-13.513z" fill="#3a312a" data-original="#3a312a" style="" class=""/><path d="m145.079 59.064c.33 1.065-.267 2.196-1.332 2.526-1.066.33-2.197-.266-2.527-1.331s.267-2.196 1.332-2.526c1.066-.33 2.198.267 2.527 1.331z" fill="#3a312a" data-original="#3a312a" style="" class=""/><path d="m159.04 54.742c.33 1.065-.267 2.196-1.333 2.526s-2.197-.266-2.527-1.331.267-2.196 1.332-2.526c1.067-.33 2.198.266 2.528 1.331z" fill="#3a312a" data-original="#3a312a" style="" class=""/></g><path d="m144.393 65.561c.425 1.372-.719 2.945-2.555 3.513s-3.668-.083-4.093-1.454c-.425-1.372.719-2.944 2.555-3.513 1.835-.569 3.668.082 4.093 1.454z" fill="#f59689" data-original="#f59689" style=""/><path d="m166.066 58.85c.425 1.372-.719 2.945-2.555 3.513-1.836.569-3.669-.083-4.093-1.454-.425-1.372.719-2.944 2.555-3.513s3.668.082 4.093 1.454z" fill="#f59689" data-original="#f59689" style=""/><path d="m153.029 75.596c-2.072 0-3.938-.854-5.486-2.534-.562-.609-.523-1.558.086-2.12.609-.561 1.559-.522 2.12.086 1.403 1.522 2.938 1.921 4.969 1.29 2.345-.726 3.292-2.637 3.356-3.744.048-.827.773-1.447 1.585-1.411.827.048 1.458.758 1.411 1.584-.135 2.327-1.903 5.333-5.464 6.436-.888.277-1.749.413-2.577.413z" fill="#3a312a" data-original="#3a312a" style="" class=""/><path d="m170.831 42.348c.638 2.061.989 4.143 1.071 6.202-5.925-.888-11.774-2.419-17.385-4.46-1.646-.597-3.283-1.242-4.882-1.969-1.956-.873-3.861-1.876-5.661-3.045-3.918-2.552-7.236-5.849-10.282-9.41 2.014-1.418 4.283-2.547 6.764-3.316 6.635-2.055 13.484-1.122 19.096 2.035 5.222 2.933 9.368 7.792 11.279 13.963z" fill="#87796f" data-original="#87796f" style="" class=""/><path d="m171.901 50.05c-.074 0-.149-.005-.222-.017-5.88-.881-11.827-2.407-17.676-4.534-1.868-.678-3.501-1.336-4.989-2.013-2.124-.947-4.097-2.009-5.858-3.153-3.564-2.32-6.933-5.4-10.605-9.693-.274-.321-.401-.743-.348-1.162s.279-.796.624-1.04c2.184-1.537 4.601-2.722 7.185-3.522 6.834-2.116 14.035-1.349 20.275 2.16 5.764 3.238 10.018 8.504 11.976 14.828h.001c.666 2.151 1.048 4.367 1.136 6.586.018.447-.165.878-.498 1.177-.277.249-.634.383-1.001.383zm-35.942-20.07c3.044 3.403 5.878 5.915 8.833 7.838 1.628 1.058 3.464 2.045 5.453 2.932 1.426.648 2.988 1.277 4.783 1.929 5.041 1.833 10.153 3.205 15.225 4.084-.165-1.338-.451-2.668-.855-3.973h.001c-1.73-5.587-5.488-10.239-10.581-13.1-5.515-3.101-11.878-3.78-17.918-1.909-1.743.541-3.398 1.278-4.941 2.199z" fill="#3a312a" data-original="#3a312a" style="" class=""/><path d="m159.552 28.384c-2.865 4.872-6.211 9.435-9.918 13.737-6.572 7.632-14.265 14.431-22.376 20.62-1.186-1.827-2.142-3.846-2.818-6.028-3.196-10.323.848-21.162 9.251-27.047 2.014-1.418 4.283-2.547 6.764-3.316 6.636-2.055 13.485-1.122 19.097 2.034z" fill="#87796f" data-original="#87796f" style="" class=""/><path d="m127.258 64.241c-.085 0-.171-.007-.256-.022-.412-.071-.775-.311-1.002-.662-1.282-1.976-2.289-4.13-2.993-6.401-3.324-10.736.624-22.278 9.824-28.72 2.18-1.535 4.597-2.72 7.181-3.52 6.834-2.116 14.035-1.349 20.275 2.16.351.198.608.528.713.917s.049.804-.155 1.151c-2.778 4.726-6.167 9.421-10.075 13.956-6.06 7.038-13.454 13.853-22.602 20.833-.263.202-.583.308-.91.308zm20.426-37.494c-2.266 0-4.547.343-6.784 1.036-2.284.707-4.419 1.752-6.344 3.109-8.131 5.694-11.619 15.891-8.682 25.377.459 1.483 1.064 2.909 1.805 4.256 8.37-6.495 15.19-12.847 20.819-19.383 3.415-3.964 6.42-8.049 8.948-12.164-3.093-1.48-6.411-2.231-9.762-2.231z" fill="#3a312a" data-original="#3a312a" style="" class=""/><path d="m182.268 141.58c4.325.121 7.889-.921 8.327-4.942l.03.001.467-16.622c.08-2.836-2.155-5.199-4.99-5.279-2.836-.08-5.192 2.155-5.271 4.99l-.294 10.474-84.987-5.06c-4.534-.127-8.313 3.445-8.44 7.979s3.445 8.313 7.979 8.44z" fill="#f3dec3" data-original="#f3dec3" style="" class=""/><path d="m182.871 143.089c-.204 0-.411-.003-.624-.009l-87.16-.02c-5.395-.151-9.628-4.628-9.478-9.982.151-5.354 4.654-9.568 9.982-9.436l83.489 4.971.25-8.927c.05-1.772.786-3.418 2.07-4.636 1.286-1.218 2.952-1.875 4.743-1.812 1.772.05 3.419.787 4.636 2.075 1.218 1.288 1.861 2.973 1.811 4.745l-.467 16.622c-.004.156-.033.306-.081.446-.418 2.818-2.404 5.962-9.171 5.963zm-87.596-16.452c-3.572 0-6.564 2.889-6.667 6.526-.104 3.699 2.822 6.794 6.521 6.898l87.139.019c.014 0 .028 0 .042.001 5.648.155 6.602-1.843 6.794-3.605.007-.061.017-.121.03-.179l.459-16.321c.027-.971-.325-1.895-.993-2.601-.667-.706-1.57-1.109-2.54-1.137-.966-.031-1.892.325-2.596.991-.704.667-1.107 1.57-1.134 2.542l-.294 10.474c-.012.406-.187.79-.486 1.064-.3.275-.7.409-1.102.392l-84.988-5.061c-.062-.002-.124-.003-.185-.003z" fill="#3a312a" data-original="#3a312a" style="" class=""/><path d="m169.94 141.576.337-11.986-74.724-4.446c-4.537-.128-8.316 3.444-8.443 7.974-.128 4.537 3.444 8.316 7.982 8.443z" fill="#87796f" data-original="#87796f" style="" class=""/><path d="m169.939 143.076-74.849-.015c-5.396-.151-9.631-4.631-9.48-9.985.073-2.592 1.152-5.001 3.037-6.782s4.334-2.726 6.948-2.649l74.77 4.448c.809.048 1.433.73 1.411 1.539l-.337 11.986c-.023.812-.688 1.458-1.5 1.458zm-74.658-16.437c-1.683 0-3.316.647-4.573 1.836-1.303 1.231-2.048 2.895-2.099 4.686-.104 3.702 2.823 6.797 6.524 6.902l73.347.014.255-9.074-73.272-4.36c-.06-.003-.121-.004-.182-.004z" fill="#3a312a" data-original="#3a312a" style="" class=""/><path d="m154.183 201.767h48.722v24c0 3.866 3.134 7 7 7s7-3.134 7-7v-31c0-3.866-3.134-7-7-7h-163.75c-3.866 0-7 3.134-7 7v31c0 3.866 3.134 7 7 7s7-3.134 7-7v-24h83.479z" fill="#87796f" data-original="#87796f" style="" class=""/><path d="m209.905 234.267c-4.687 0-8.5-3.813-8.5-8.5v-22.5h-47.222c-.829 0-1.5-.671-1.5-1.5s.671-1.5 1.5-1.5h48.722c.829 0 1.5.671 1.5 1.5v24c0 3.033 2.467 5.5 5.5 5.5s5.5-2.467 5.5-5.5v-31c0-3.033-2.467-5.5-5.5-5.5h-163.75c-3.033 0-5.5 2.467-5.5 5.5v31c0 3.033 2.467 5.5 5.5 5.5s5.5-2.467 5.5-5.5v-24c0-.829.671-1.5 1.5-1.5h83.479c.829 0 1.5.671 1.5 1.5s-.671 1.5-1.5 1.5h-81.979v22.5c0 4.687-3.813 8.5-8.5 8.5s-8.5-3.813-8.5-8.5v-31c0-4.687 3.813-8.5 8.5-8.5h163.75c4.687 0 8.5 3.813 8.5 8.5v31c0 4.687-3.813 8.5-8.5 8.5z" fill="#3a312a" data-original="#3a312a" style="" class=""/><path d="m45.754 152.527 10.674 18.282c1.792 3.07 5.081 4.958 8.636 4.958h164.468c5.522 0 10-4.477 10-10s-4.478-10-10-10h-158.727l-35.638-61.042c-2.784-4.769-8.908-6.379-13.678-3.594-4.77 2.784-6.378 8.908-3.594 13.678l18.54 31.757z" fill="#d3a9ad" data-original="#eb6e7a" style="" class=""/><path d="m229.531 177.267h-164.468c-4.072 0-7.878-2.185-9.931-5.702l-10.673-18.282c-.418-.715-.176-1.634.539-2.052.714-.418 1.634-.176 2.052.539l10.673 18.282c1.518 2.6 4.33 4.214 7.34 4.214h164.468c4.687 0 8.5-3.813 8.5-8.5s-3.813-8.5-8.5-8.5h-158.726c-.533 0-1.026-.283-1.295-.744l-35.638-61.041c-1.145-1.961-2.984-3.358-5.18-3.936-2.195-.577-4.485-.264-6.446.88-4.047 2.363-5.418 7.579-3.055 11.626l18.54 31.757c.418.715.176 1.634-.539 2.052-.717.417-1.634.176-2.052-.539l-18.54-31.756c-3.197-5.477-1.343-12.533 4.133-15.73 2.652-1.549 5.749-1.972 8.721-1.191 2.971.781 5.46 2.671 7.008 5.324l35.204 60.298h157.865c6.341 0 11.5 5.159 11.5 11.5 0 6.342-5.158 11.501-11.5 11.501z" fill="#3a312a" data-original="#3a312a" style="" class=""/><path d="m71.2 175.768h113.66v12h-113.66z" fill="#87796f" data-original="#87796f" style="" class=""/><path d="m184.86 189.268h-113.66c-.829 0-1.5-.671-1.5-1.5v-12c0-.829.671-1.5 1.5-1.5h113.66c.829 0 1.5.671 1.5 1.5v12c0 .828-.671 1.5-1.5 1.5zm-112.16-3h110.66v-9h-110.66z" fill="#3a312a" data-original="#3a312a" style="" class=""/><path d="m215.771 141.767h-134.431l-18.325-31.385c-2.511-4.301-7.118-6.946-12.098-6.946h-10.667l22.38 38.33h-.001l8.171 14h158.73c.084 0 .166.007.25.009 0-7.736-6.272-14.008-14.009-14.008z" fill="#a5bfc9" data-original="#8ac6dd" style="" class=""/><path d="m229.78 157.276c-.012 0-.023 0-.035-.001l-.146-.006-158.799-.002c-.533 0-1.027-.283-1.295-.744l-30.55-52.33c-.271-.464-.273-1.037-.005-1.503s.764-.753 1.301-.753h10.667c5.493 0 10.625 2.946 13.394 7.689l17.891 30.641h133.569c8.552 0 15.509 6.957 15.509 15.509 0 .404-.163.79-.452 1.073-.281.275-.658.427-1.049.427zm0-1.5h.01zm-158.118-1.509h156.528c-.748-6.189-6.032-11-12.419-11h-134.431c-.533 0-1.026-.283-1.295-.744l-18.325-31.384c-2.233-3.825-6.372-6.202-10.803-6.202h-8.054z" fill="#3a312a" data-original="#3a312a" style="" class=""/><ellipse cx="46.24" cy="227.245" fill="#87796f" rx="12.478" ry="12.478" transform="matrix(.925 -.38 .38 .925 -82.84 34.588)" data-original="#87796f" style="" class=""/><path d="m46.24 241.222c-7.707 0-13.977-6.27-13.977-13.978 0-7.707 6.27-13.977 13.977-13.977 7.708 0 13.978 6.27 13.978 13.977 0 7.708-6.27 13.978-13.978 13.978zm0-24.955c-6.053 0-10.977 4.924-10.977 10.977s4.924 10.978 10.977 10.978 10.978-4.924 10.978-10.978c0-6.053-4.925-10.977-10.978-10.977z" fill="#3a312a" data-original="#3a312a" style="" class=""/><path d="m40.714 227.245c0-3.052 2.474-5.526 5.526-5.526s5.526 2.474 5.526 5.526-2.474 5.526-5.526 5.526-5.526-2.474-5.526-5.526z" fill="#fce8cb" data-original="#fce8cb" style="" class=""/><path d="m46.24 234.271c-3.874 0-7.026-3.152-7.026-7.026s3.152-7.026 7.026-7.026c3.875 0 7.026 3.152 7.026 7.026s-3.151 7.026-7.026 7.026zm0-11.053c-2.22 0-4.026 1.806-4.026 4.026s1.806 4.026 4.026 4.026 4.026-1.806 4.026-4.026-1.806-4.026-4.026-4.026z" fill="#3a312a" data-original="#3a312a" style="" class=""/><ellipse cx="210.24" cy="227.245" fill="#87796f" rx="12.478" ry="12.478" transform="matrix(.984 -.178 .178 .984 -37.018 40.954)" data-original="#87796f" style="" class=""/><path d="m210.24 241.222c-7.707 0-13.977-6.27-13.977-13.978 0-7.707 6.27-13.977 13.977-13.977s13.978 6.27 13.978 13.977c0 7.708-6.271 13.978-13.978 13.978zm0-24.955c-6.053 0-10.977 4.924-10.977 10.977s4.924 10.978 10.977 10.978 10.978-4.924 10.978-10.978c0-6.053-4.925-10.977-10.978-10.977z" fill="#3a312a" data-original="#3a312a" style="" class=""/><path d="m204.714 227.245c0-3.052 2.474-5.526 5.526-5.526s5.526 2.474 5.526 5.526-2.474 5.526-5.526 5.526-5.526-2.474-5.526-5.526z" fill="#fce8cb" data-original="#fce8cb" style="" class=""/><path d="m210.24 234.271c-3.874 0-7.026-3.152-7.026-7.026s3.152-7.026 7.026-7.026 7.026 3.152 7.026 7.026-3.151 7.026-7.026 7.026zm0-11.053c-2.22 0-4.026 1.806-4.026 4.026s1.806 4.026 4.026 4.026 4.026-1.806 4.026-4.026-1.806-4.026-4.026-4.026z" fill="#3a312a" data-original="#3a312a" style="" class=""/><path d="m238.03 165.768c0 4.69-3.81 8.5-8.5 8.5h-15c4.69 0 8.5-3.81 8.5-8.5 0-4.67-3.78-8.47-8.44-8.5h15c4.66.03 8.44 3.83 8.44 8.5z" fill="#c1979b" data-original="#d24e5c" style="" class=""/><path d="m228.19 154.268h-15c-.75-6.19-6.03-11-12.42-11h15c6.39 0 11.67 4.81 12.42 11z" fill="#839ea9" data-original="#6ca6be" style="" class=""/><path d="m226.309 25.96s3.408 12.659 13.222 13.246c0 0-13.1 4.525-13.321 14.202 0 0-2.578-13.572-12.925-14.059 0 0 12.05-1.825 13.024-13.389z" fill="#c1c586" data-original="#d6df58" style="" class=""/><path d="m226.209 54.908c-.713 0-1.336-.506-1.472-1.217-.024-.124-2.495-12.418-11.523-12.843-.77-.037-1.387-.651-1.427-1.421-.04-.771.511-1.445 1.273-1.561.441-.069 10.894-1.817 11.754-12.032.061-.725.634-1.301 1.359-1.367.724-.06 1.392.398 1.583 1.102.032.116 3.259 11.626 11.864 12.14.714.043 1.298.584 1.396 1.292s-.319 1.388-.994 1.623c-.121.042-12.118 4.311-12.313 12.819-.018.767-.61 1.396-1.374 1.459-.042.004-.085.006-.126.006zm-7.741-15.73c3.878 1.969 6.23 5.746 7.587 8.876 2.026-4.021 5.942-6.787 8.949-8.427-4.134-1.842-6.783-5.651-8.335-8.722-1.793 4.36-5.271 6.868-8.201 8.273z" fill="#3a312a" data-original="#3a312a" style="" class=""/><path d="m204.611 16.283s2.411 8.954 9.352 9.37c0 0-9.266 3.201-9.422 10.045 0 0-1.824-9.6-9.142-9.944-.001-.001 8.523-1.292 9.212-9.471z" fill="#c1c586" data-original="#d6df58" style="" class=""/><path d="m204.539 37.198c-.713 0-1.337-.507-1.472-1.22-.016-.082-1.704-8.442-7.739-8.726-.771-.037-1.388-.651-1.428-1.421-.04-.771.511-1.445 1.273-1.561.296-.047 7.364-1.243 7.942-8.114.061-.726.635-1.303 1.36-1.368.726-.063 1.391.399 1.582 1.101.021.079 2.228 7.92 7.994 8.265.714.043 1.299.584 1.396 1.293.098.709-.32 1.388-.996 1.622-.081.028-8.282 2.952-8.412 8.662-.018.767-.611 1.397-1.376 1.461-.04.004-.082.006-.124.006zm-4.519-11.528c2.107 1.332 3.523 3.394 4.447 5.28 1.377-2.232 3.516-3.872 5.365-4.972-2.287-1.27-3.884-3.35-4.941-5.224-1.174 2.286-3.015 3.875-4.871 4.916z" fill="#3a312a" data-original="#3a312a" style="" class=""/><path d="m204.611 45.069s2.411 8.954 9.352 9.369c0 0-9.266 3.201-9.422 10.045 0 0-1.824-9.6-9.142-9.944-.001.001 8.523-1.291 9.212-9.47z" fill="#c1c586" data-original="#d6df58" style="" class=""/><path d="m204.539 65.984c-.713 0-1.337-.507-1.472-1.22-.016-.082-1.704-8.442-7.739-8.726-.771-.037-1.388-.651-1.428-1.421-.04-.771.511-1.445 1.273-1.561.296-.047 7.364-1.243 7.942-8.114.061-.726.635-1.303 1.36-1.368.726-.066 1.391.4 1.582 1.102.021.079 2.228 7.92 7.994 8.265.714.043 1.299.584 1.396 1.294.098.709-.32 1.388-.996 1.622-.081.028-8.282 2.952-8.412 8.662-.018.767-.611 1.397-1.376 1.461-.04.002-.082.004-.124.004zm-4.519-11.528c2.107 1.333 3.523 3.394 4.447 5.28 1.377-2.232 3.516-3.872 5.365-4.972-2.287-1.27-3.884-3.35-4.941-5.224-1.174 2.286-3.015 3.875-4.871 4.916z" fill="#3a312a" data-original="#3a312a" style="" class=""/><path d="m71.598 86.711c7.234-3.384 15.841-.264 19.226 6.97l15.042 32.148c1.229 2.626.096 5.751-2.53 6.979l-16.686 7.807c-2.626 1.229-5.751.096-6.979-2.53l-15.041-32.148c-3.386-7.234-.265-15.841 6.968-19.226z" fill="#bbbd9c" data-original="#d7e057" style="" class=""/><path d="m84.429 142.613c-.776 0-1.554-.135-2.305-.408-1.695-.614-3.049-1.852-3.813-3.485l-15.041-32.147c-3.73-7.971-.279-17.49 7.692-21.22 7.97-3.729 17.491-.279 21.22 7.693l15.042 32.148c.764 1.633.846 3.465.231 5.16-.614 1.695-1.852 3.049-3.485 3.814l-16.686 7.807c-.909.424-1.88.638-2.855.638zm-12.195-54.544c-6.473 3.029-9.275 10.759-6.247 17.232l15.042 32.147c.425.907 1.177 1.595 2.118 1.936.943.342 1.96.296 2.867-.129l16.686-7.807c.907-.424 1.595-1.176 1.936-2.118.341-.941.296-1.959-.128-2.866l-15.042-32.148c-3.03-6.472-10.76-9.275-17.232-6.247z" fill="#3a312a" data-original="#3a312a" style="" class=""/><ellipse cx="81.057" cy="66.305" fill="#f6e2c6" rx="16.366" ry="23.077" transform="matrix(.987 -.16 .16 .987 -9.546 13.791)" data-original="#f6e2c6" style="" class=""/><path d="m82.881 90.734c-8.982.001-17.455-9.166-19.462-21.581-1.033-6.389-.229-12.701 2.263-17.774 2.577-5.244 6.645-8.561 11.454-9.337 9.718-1.564 19.396 8.034 21.559 21.413 1.033 6.389.229 12.701-2.263 17.773-2.577 5.245-6.644 8.561-11.453 9.337-.701.114-1.401.169-2.098.169zm-3.611-45.862c-.551 0-1.103.043-1.656.133-3.822.617-7.104 3.352-9.239 7.699-2.221 4.519-2.929 10.191-1.994 15.972 1.898 11.746 10.034 20.239 18.119 18.929 3.822-.617 7.103-3.351 9.239-7.698 2.221-4.519 2.929-10.192 1.994-15.972-1.769-10.944-8.946-19.063-16.463-19.063z" fill="#3a312a" data-original="#3a312a" style="" class=""/><path d="m87.163 69.119c.22 1.361-1.077 2.702-2.897 2.995-1.82.294-3.473-.57-3.693-1.931-.22-1.36 1.077-2.701 2.897-2.995 1.819-.294 3.473.57 3.693 1.931z" fill="#f59689" data-original="#f59689" style=""/><path d="m95.366 80.177c-2.467 0-4.464-1.087-5.942-3.237-.469-.683-.296-1.617.387-2.086s1.616-.296 2.086.387c.986 1.435 2.229 2.037 3.905 1.92.823-.061 1.546.558 1.607 1.384.062.826-.558 1.546-1.384 1.607-.223.017-.443.025-.659.025z" fill="#3a312a" data-original="#3a312a" style="" class=""/><path d="m85.435 66.672c-1.987 0-3.644-.893-4.838-2.622-.471-.682-.3-1.616.382-2.087s1.615-.3 2.087.382c.767 1.11 1.678 1.491 3.056 1.268 1.747-.282 2.376-1.568 2.47-2.04.163-.812.954-1.338 1.766-1.176.813.163 1.339.954 1.176 1.766-.361 1.799-2.059 3.948-4.933 4.412-.401.065-.79.097-1.166.097z" fill="#3a312a" data-original="#3a312a" style="" class=""/><path d="m81.543 94.961 13.336 8.386 23.575-10.669c2.667-1.228 5.819-.075 7.053 2.586.969 2.09.459 4.483-1.09 6.012-.422.417-.925.776-1.496 1.042l-25.87 11.724c-1.447.669-3.118.653-4.552-.044l-15.602-9.488z" fill="#bbbd9c" data-original="#d7e057" style="" class=""/><path d="m94.825 116.035c-1.018 0-2.036-.229-2.981-.689-.042-.021-.084-.043-.123-.067l-15.602-9.488c-.708-.431-.933-1.354-.502-2.061s1.355-.932 2.061-.502l15.537 9.448c1.018.475 2.184.477 3.208.004l25.88-11.729c.383-.178.744-.43 1.062-.743 1.142-1.127 1.456-2.86.783-4.313-.882-1.902-3.156-2.733-5.065-1.854l-23.584 10.673c-.459.207-.991.17-1.417-.097l-13.338-8.387c-.702-.441-.913-1.367-.472-2.068.441-.702 1.368-.912 2.068-.472l12.654 7.958 22.841-10.337c3.401-1.564 7.456-.077 9.033 3.321 1.205 2.598.643 5.697-1.397 7.711-.563.557-1.209 1.005-1.919 1.335l-25.882 11.73c-.904.418-1.874.627-2.845.627z" fill="#3a312a" data-original="#3a312a" style="" class=""/><path d="m122.925 102.318c.571-.267 1.07-.625 1.495-1.043 1.549-1.529 2.051-3.924 1.085-6.008-1.229-2.667-4.389-3.817-7.048-2.592l-4.288 1.938 4.399 9.682z" fill="#f3dec3" data-original="#f3dec3" style="" class=""/><path d="m118.568 105.795c-.57 0-1.115-.327-1.367-.88l-4.399-9.683c-.164-.363-.178-.776-.038-1.149s.423-.675.786-.839l4.288-1.938c3.404-1.567 7.458-.076 9.028 3.331 1.204 2.597.644 5.694-1.394 7.704-.566.557-1.209 1.006-1.913 1.335-.005.002-.01.005-.015.007l-4.358 1.977c-.201.092-.411.135-.618.135zm4.357-3.477h.01zm-6.769-6.958 3.157 6.949 2.984-1.354c.392-.184.752-.436 1.071-.75 1.138-1.122 1.45-2.854.776-4.308-.878-1.908-3.147-2.741-5.06-1.86z" fill="#3a312a" data-original="#3a312a" style="" class=""/><path d="m52.418 68.603c2.101 20.9 18.973 22.447 29.734 20.893.677-.101 1.335-.237 1.98-.426-6.241-2.4-11.845-9.989-13.178-19.217-.37-2.53-.4-4.989-.16-7.326 8.449-3.073 16.418-7.229 22.688-13.519-4.472-7.019-11.384-10.294-18.63-10.133-18.617.414-23.848 15.671-22.434 29.728z" fill="#f4e0c4" data-original="#f4e0c4" style=""/><path d="m76.209 91.43c-5.228 0-11.595-1.023-16.662-4.985-4.928-3.854-7.83-9.806-8.623-17.692-.988-9.835 1.203-18.345 6.171-23.961 4.205-4.753 10.167-7.248 17.722-7.416 8.177-.174 15.43 3.766 19.929 10.827.377.593.293 1.368-.203 1.865-5.528 5.545-12.842 9.979-22.338 13.537-.138 2.006-.061 4.031.232 6.031 1.2 8.311 6.23 15.726 12.232 18.034.601.231.987.819.96 1.462-.026.643-.461 1.197-1.078 1.378-.684.2-1.397.353-2.181.47-1.669.241-3.799.45-6.161.45zm-22.299-22.976c.708 7.04 3.226 12.298 7.485 15.628 5.562 4.349 13.113 4.647 18.232 4.197-5.166-3.783-9.056-10.582-10.158-18.211-.373-2.55-.43-5.14-.168-7.693.059-.572.439-1.06.979-1.256 9.004-3.274 15.973-7.308 21.258-12.31-3.984-5.599-9.83-8.565-16.654-8.433-6.685.148-11.914 2.303-15.542 6.404-4.343 4.91-6.323 12.81-5.432 21.674z" fill="#3a312a" data-original="#3a312a" style="" class=""/><path d="m105.202 175.767v-43.724c0-2.606 2.119-4.725 4.725-4.725h47.145c2.606 0 4.725 2.119 4.725 4.725v43.724h8.203v-43.724c0-7.128-5.799-12.927-12.927-12.927h-47.145c-7.128 0-12.927 5.799-12.927 12.927v43.724z" fill="#87796f" data-original="#87796f" style="" class=""/><path d="m170 177.267h-8.202c-.829 0-1.5-.671-1.5-1.5v-43.725c0-1.778-1.447-3.225-3.225-3.225h-47.146c-1.778 0-3.225 1.447-3.225 3.225v43.725c0 .829-.671 1.5-1.5 1.5h-8.202c-.829 0-1.5-.671-1.5-1.5v-43.725c0-7.955 6.472-14.427 14.427-14.427h47.146c7.955 0 14.427 6.472 14.427 14.427v43.725c0 .829-.671 1.5-1.5 1.5zm-6.702-3h5.202v-42.225c0-6.301-5.127-11.427-11.427-11.427h-47.146c-6.301 0-11.427 5.127-11.427 11.427v42.225h5.202v-42.225c0-3.433 2.792-6.225 6.225-6.225h47.146c3.433 0 6.225 2.792 6.225 6.225z" fill="#3a312a" data-original="#3a312a" style="" class=""/></g></g></svg>
