<?xml version="1.0"?>
<svg xmlns="http://www.w3.org/2000/svg" xmlns:xlink="http://www.w3.org/1999/xlink" xmlns:svgjs="http://svgjs.com/svgjs" version="1.1" width="512" height="512" x="0" y="0" viewBox="0 0 512.003 512.003" style="enable-background:new 0 0 512 512" xml:space="preserve" class=""><g>
<g xmlns="http://www.w3.org/2000/svg">
	<path style="" d="M129.297,494.432H80.628c-7.191,0-13.02-5.829-13.02-13.02v-24.131h74.708v24.131   C142.316,488.603,136.487,494.432,129.297,494.432z" fill="#38648c" data-original="#38648c"/>
	<path style="" d="M382.703,494.432h48.668c7.19,0,13.02-5.829,13.02-13.02v-24.131h-74.708v24.131   C369.684,488.603,375.513,494.432,382.703,494.432z" fill="#38648c" data-original="#38648c"/>
	<path style="" d="M351.149,134.663c-10.834,0-19.617-8.783-19.617-19.617V89.489   c0-18.022-14.662-32.684-32.684-32.684h-85.695c-18.022,0-32.684,14.662-32.684,32.684v25.556c0,10.835-8.783,19.617-19.618,19.617   c-10.834,0-19.617-8.783-19.617-19.617V89.489c0-39.656,32.263-71.919,71.919-71.919h85.695c39.656,0,71.919,32.263,71.919,71.919   v25.556C370.766,125.88,361.983,134.663,351.149,134.663z" fill="#38648c" data-original="#38648c"/>
</g>
<path xmlns="http://www.w3.org/2000/svg" style="" d="M462.737,457.281H49.263c-23.065,0-41.763-18.698-41.763-41.763V156.809  c0-23.065,18.698-41.763,41.763-41.763h413.473c23.065,0,41.763,18.698,41.763,41.763v258.709  C504.5,438.583,485.802,457.281,462.737,457.281z" fill="#4f7ea9" data-original="#76b7eb" class=""/>
<path xmlns="http://www.w3.org/2000/svg" style="" d="M7.5,156.809v258.709c0,23.065,18.698,41.763,41.763,41.763h184.721  c-104.95-80.743-121.826-269.365-124.038-342.236H49.263C26.198,115.046,7.5,133.744,7.5,156.809z" fill="#000000" data-original="#000000" class=""/>
<g xmlns="http://www.w3.org/2000/svg">
	<path style="" d="M85.954,457.281H49.263V115.046c0-10.132,8.213-18.345,18.345-18.345l0,0   c10.132,0,18.345,8.214,18.345,18.345L85.954,457.281L85.954,457.281z" fill="#b3e7ff" data-original="#b3e7ff"/>
	<path style="" d="M426.046,457.281h36.691V115.046c0-10.132-8.214-18.345-18.345-18.345l0,0   c-10.132,0-18.345,8.214-18.345,18.345v342.235H426.046z" fill="#b3e7ff" data-original="#b3e7ff"/>
</g>
<circle xmlns="http://www.w3.org/2000/svg" style="" cx="256" cy="341.201" r="81.22" fill="#ffffff" data-original="#ffffff" class=""/>
<path xmlns="http://www.w3.org/2000/svg" style="" d="M272.552,321.401v-24.622c0-2.26-1.832-4.092-4.091-4.092h-24.922c-2.26,0-4.091,1.832-4.091,4.092  v24.622c0,1.793-1.454,3.247-3.247,3.247h-24.622c-2.26,0-4.092,1.832-4.092,4.092v24.922c0,2.26,1.832,4.091,4.092,4.091h24.622  c1.793,0,3.247,1.454,3.247,3.247v24.622c0,2.26,1.832,4.091,4.091,4.091h24.922c2.26,0,4.091-1.832,4.091-4.091V361  c0-1.793,1.454-3.247,3.247-3.247h24.622c2.26,0,4.091-1.832,4.091-4.091V328.74c0-2.26-1.832-4.092-4.091-4.092h-24.622  C274.006,324.648,272.552,323.195,272.552,321.401z" fill="#f28b74" data-original="#f28b74" class=""/>
<g xmlns="http://www.w3.org/2000/svg">
	<ellipse style="" cx="171.45" cy="205.901" rx="31.2" ry="24.845" fill="#ffffff" data-original="#ffffff" class=""/>
	<ellipse style="" cx="340.55" cy="205.901" rx="31.2" ry="24.845" fill="#ffffff" data-original="#ffffff" class=""/>
</g>
<rect xmlns="http://www.w3.org/2000/svg" x="141.23" y="96.701" style="" width="39.23" height="18.345" fill="#000000" data-original="#000000" class=""/>
<rect xmlns="http://www.w3.org/2000/svg" x="331.53" y="96.701" style="" width="39.23" height="18.345" fill="#000000" data-original="#000000" class=""/>
<rect xmlns="http://www.w3.org/2000/svg" x="67.61" y="457.281" style="" width="74.71" height="15.15" fill="#000000" data-original="#000000" class=""/>
<rect xmlns="http://www.w3.org/2000/svg" x="369.68" y="457.281" style="" width="74.71" height="15.15" fill="#000000" data-original="#000000" class=""/>
<g xmlns="http://www.w3.org/2000/svg" style="opacity:0.1;">
	<rect x="7.5" y="308.191" width="41.763" height="15" fill="#000000" data-original="#000000" style="" class=""/>
	<rect x="7.5" y="346.891" width="41.763" height="15" fill="#000000" data-original="#000000" style="" class=""/>
	<rect x="7.5" y="269.491" width="41.763" height="15" fill="#000000" data-original="#000000" style="" class=""/>
</g>
<g xmlns="http://www.w3.org/2000/svg" style="opacity:0.1;">
	<rect x="462.74" y="308.191" width="41.763" height="15" fill="#000000" data-original="#000000" style="" class=""/>
	<rect x="462.74" y="346.891" width="41.763" height="15" fill="#000000" data-original="#000000" style="" class=""/>
	<rect x="462.74" y="269.491" width="41.763" height="15" fill="#000000" data-original="#000000" style="" class=""/>
</g>
<path xmlns="http://www.w3.org/2000/svg" d="M504.5,186.806c4.142,0,7.5-3.358,7.5-7.5v-22.497c0-24.955-18.656-45.621-42.75-48.82  C466.171,97.158,456.196,89.2,444.392,89.2c-11.643,0-21.51,7.741-24.732,18.345h-41.393V89.489  c0-43.792-35.627-79.419-79.419-79.419h-85.695c-43.792,0-79.419,35.627-79.419,79.419v18.056H92.341  C89.118,96.941,79.252,89.2,67.609,89.2c-11.805,0-21.779,7.958-24.859,18.789C18.656,111.188,0,131.854,0,156.809v258.709  c0,27.164,22.099,49.263,49.263,49.263h10.846v16.631c0,11.315,9.205,20.52,20.52,20.52h48.669c11.314,0,20.52-9.205,20.52-20.52  v-16.631h212.367v16.631c0,11.315,9.205,20.52,20.52,20.52h48.669c11.314,0,20.52-9.205,20.52-20.52v-16.631h10.846  c27.164,0,49.263-22.099,49.263-49.263v-201.06c0-4.142-3.358-7.5-7.5-7.5s-7.5,3.358-7.5,7.5v201.06  c0,16.316-11.467,29.996-26.763,33.426V123.382c15.296,3.431,26.763,17.11,26.763,33.427v22.497  C497,183.448,500.358,186.806,504.5,186.806z M148.733,89.489c0-35.521,28.898-64.419,64.419-64.419h85.695  c35.521,0,64.419,28.899,64.419,64.419v18.056h-24.235V89.489c0-22.158-18.026-40.184-40.184-40.184h-85.695  c-22.158,0-40.184,18.026-40.184,40.184v18.056h-24.235L148.733,89.489L148.733,89.489z M324.032,89.489v18.056H187.968V89.489  c0-13.887,11.297-25.184,25.184-25.184h85.695C312.734,64.305,324.032,75.603,324.032,89.489z M56.763,449.781v-16.511  c0-4.142-3.358-7.5-7.5-7.5s-7.5,3.358-7.5,7.5v15.674C26.467,445.514,15,431.834,15,415.518V156.809  c0-16.316,11.467-29.996,26.763-33.427v274.782c0,4.142,3.358,7.5,7.5,7.5s7.5-3.358,7.5-7.5V115.045  c0-5.98,4.865-10.845,10.846-10.845c5.98,0,10.845,4.865,10.845,10.845v334.736H56.763z M134.816,481.412  c0,3.044-2.476,5.52-5.52,5.52H80.628c-3.043,0-5.52-2.476-5.52-5.52v-16.631h59.708L134.816,481.412L134.816,481.412z   M93.454,449.781V122.545h325.092v327.236H93.454z M436.891,481.412c0,3.044-2.476,5.52-5.52,5.52h-48.669  c-3.043,0-5.52-2.476-5.52-5.52v-16.631h59.708L436.891,481.412L436.891,481.412z M455.237,449.781h-21.691V115.045  c0-5.98,4.865-10.845,10.845-10.845s10.846,4.865,10.846,10.845V449.781z M322.371,156.511c-12.324,0-22.35,10.026-22.35,22.35  c0,4.142,3.358,7.5,7.5,7.5s7.5-3.358,7.5-7.5c0-4.053,3.297-7.35,7.35-7.35s7.35,3.297,7.35,7.35c0,4.142,3.358,7.5,7.5,7.5  s7.5-3.358,7.5-7.5C344.721,166.537,334.695,156.511,322.371,156.511z M276.679,190.563c-3.123-2.721-7.86-2.396-10.582,0.727  c-2.55,2.925-6.23,4.604-10.098,4.604s-7.548-1.678-10.098-4.604c-2.722-3.124-7.459-3.448-10.581-0.727  c-3.123,2.721-3.448,7.459-0.727,10.582c5.399,6.196,13.202,9.749,21.406,9.749c8.205,0,16.007-3.553,21.406-9.749  C280.127,198.022,279.802,193.284,276.679,190.563z M189.629,156.511c-12.324,0-22.35,10.026-22.35,22.35c0,4.142,3.358,7.5,7.5,7.5  s7.5-3.358,7.5-7.5c0-4.053,3.297-7.35,7.35-7.35c4.053,0,7.35,3.297,7.35,7.35c0,4.142,3.358,7.5,7.5,7.5s7.5-3.358,7.5-7.5  C211.979,166.537,201.953,156.511,189.629,156.511z" fill="#000000" data-original="#000000" style="" class=""/>
<g xmlns="http://www.w3.org/2000/svg">
</g>
<g xmlns="http://www.w3.org/2000/svg">
</g>
<g xmlns="http://www.w3.org/2000/svg">
</g>
<g xmlns="http://www.w3.org/2000/svg">
</g>
<g xmlns="http://www.w3.org/2000/svg">
</g>
<g xmlns="http://www.w3.org/2000/svg">
</g>
<g xmlns="http://www.w3.org/2000/svg">
</g>
<g xmlns="http://www.w3.org/2000/svg">
</g>
<g xmlns="http://www.w3.org/2000/svg">
</g>
<g xmlns="http://www.w3.org/2000/svg">
</g>
<g xmlns="http://www.w3.org/2000/svg">
</g>
<g xmlns="http://www.w3.org/2000/svg">
</g>
<g xmlns="http://www.w3.org/2000/svg">
</g>
<g xmlns="http://www.w3.org/2000/svg">
</g>
<g xmlns="http://www.w3.org/2000/svg">
</g>
</g></svg>
