<svg id="Capa_1" enable-background="new 0 0 512 512" height="512" viewBox="0 0 512 512" width="512" xmlns="http://www.w3.org/2000/svg"><g><g><path d="m504.5 202.559v-90.849c0-8.855-7.178-16.032-16.032-16.032h-464.936c-8.854 0-16.032 7.178-16.032 16.032v90.849l24.045 21.377h448.907z" fill="#5d5360"/><path d="m31.548 95.677h-8.016c-8.854 0-16.032 7.178-16.032 16.032v90.849l24.044 21.377h.004z" fill="#4b3f4e"/><path d="m7.5 309.441v90.849c0 8.855 7.178 16.032 16.032 16.032h464.935c8.854 0 16.032-7.178 16.032-16.032v-90.849l-24.045-21.376h-448.906z" fill="#ffe07d"/><path d="m31.548 352.194v-57.004-7.125l-24.048 21.376v90.849c0 8.855 7.179 16.032 16.032 16.032h464.935c8.854 0 16.032-7.178 16.032-16.032v-8.016h-432.87c-22.1 0-40.081-17.98-40.081-40.08z" fill="#ffd064"/><path d="m7.5 202.559h497v106.882h-497z" fill="#e5646e"/><path d="m7.5 202.559h24.048v106.882h-24.048z" fill="#db4655"/></g><path d="m488.468 88.178h-464.936c-12.975 0-23.532 10.556-23.532 23.532v288.58c0 12.976 10.557 23.532 23.532 23.532h464.936c12.976 0 23.532-10.556 23.532-23.532v-288.58c0-12.976-10.557-23.532-23.532-23.532zm0 320.644h-464.936c-4.705 0-8.532-3.827-8.532-8.532v-83.349h433.39c4.142 0 7.5-3.358 7.5-7.5s-3.358-7.5-7.5-7.5h-433.39v-91.882h24.565c4.142 0 7.5-3.358 7.5-7.5s-3.358-7.5-7.5-7.5h-24.565v-83.349c0-4.705 3.828-8.532 8.532-8.532h464.936c4.705 0 8.532 3.827 8.532 8.532v83.349h-425.371c-4.142 0-7.5 3.358-7.5 7.5s3.358 7.5 7.5 7.5h425.371v91.882h-16.548c-4.142 0-7.5 3.358-7.5 7.5s3.358 7.5 7.5 7.5h16.548v83.349c0 4.705-3.828 8.532-8.532 8.532z"/></g></svg>