<?xml version="1.0"?>
<svg xmlns="http://www.w3.org/2000/svg" xmlns:xlink="http://www.w3.org/1999/xlink" xmlns:svgjs="http://svgjs.com/svgjs" version="1.1" width="512" height="512" x="0" y="0" viewBox="0 0 60 60" style="enable-background:new 0 0 512 512" xml:space="preserve" class=""><g><g xmlns="http://www.w3.org/2000/svg" id="Page-1" fill="none" fill-rule="evenodd"><g id="059---Sewing-Kit" fill-rule="nonzero"><path id="Shape" d="m23 1c-12.15 0-22 3.81-22 8.5 0 3.75 6.3 6.94 15 8.07v-.01c2.3212703.2988594 4.6595773.4458387 7 .44 12.15 0 22-3.81 22-8.5s-9.85-8.5-22-8.5zm0 12c-7.18 0-13-1.79-13-4s5.82-4 13-4 13 1.79 13 4-5.82 4-13 4z" fill="#9b9182" data-original="#ff9801" style="" class=""/><path id="Shape" d="m23 1c-.5 0-1 .009-1.5.022 11.45.298 20.5 3.983 20.5 8.478 0 4.442-8.837 8.092-20.093 8.466.368.007.72.034 1.093.034 12.15 0 22-3.81 22-8.5s-9.85-8.5-22-8.5z" fill="#a0b9cf" data-original="#f57c00" style="" class=""/><path id="Shape" d="m45 9.5v7c0 2.81-3.54 5.31-9 6.86-4.2398063 1.1290905-8.6126155 1.6807372-13 1.64-4.3873845.0407372-8.7601937-.5109095-13-1.64-5.46-1.55-9-4.05-9-6.86v-7c0 3.75 6.3 6.94 15 8.07v-.01c2.3212703.2988594 4.6595773.4458387 7 .44 12.15 0 22-3.81 22-8.5z" fill="#a0b9cf" data-original="#f57c00" style="" class=""/><ellipse id="Oval" cx="23" cy="9" fill="#104b6e" rx="13" ry="4" data-original="#a0522d" style="" class=""/><path id="Shape" d="m23 5c-.508 0-1.007.011-1.5.029 6.472.229 11.5 1.917 11.5 3.971s-5.028 3.742-11.5 3.971c.493.018.992.029 1.5.029 7.18 0 13-1.79 13-4s-5.82-4-13-4z" fill="#a58272" data-original="#783e22" style="" class=""/><path id="Shape" d="m45 43.5c0 3.87-6.72 7.15-15.91 8.17l13.51-12.03c1.54 1.16 2.4 2.48 2.4 3.86z" fill="#9b9182" data-original="#d84315" style="" class=""/><path id="Shape" d="m28.35 46.64-4.76 5.35h-.01c-.19.01-.38.01-.58.01-2.3408.0076528-4.6794477-.1426888-7-.45-8.73-1.11-15-4.31-15-8.05 0-2.81 3.54-5.31 9-6.86v6.36c0 2.21 5.82 4 13 4 1.7895222.0041602 3.5771677-.1161299 5.35-.36z" fill="#9b9182" data-original="#d84315" style="" class=""/><path id="Shape" d="m45 43.5v7c0 4.69-9.85 8.5-22 8.5s-22-3.81-22-8.5v-7c0 3.74 6.27 6.94 15 8.05 2.3205523.3073112 4.6592.4576528 7 .45.2 0 .39 0 .58-.01l-1.41 1.59c-.5579023.6310707-.5285078 1.5872856.0671033 2.1828967s1.551826.6250056 2.1828967.0671033l4.67-4.16c9.19-1.02 15.91-4.3 15.91-8.17z" fill="#a0b9cf" data-original="#f57c00" style="" class=""/><path id="Shape" d="m57.24 21.46-.7-.7c-1.1244945-1.1283835-2.6519723-1.7626307-4.245-1.7626307s-3.1205055.6342472-4.245 1.7626307l-4.82 4.82c-1.0628139 1.0537166-1.4452309 2.6142873-.99 4.04.2023295.655211.0467657 1.3685279-.41 1.88l-5.83 6.55h-.01l-1.71 1.93-5.93 6.66-4.76 5.35h-.01l-1.41 1.59c-.5579023.6310707-.5285078 1.5872856.0671033 2.1828967s1.551826.6250056 2.1828967.0671033l4.67-4.16 13.51-12.03 3.9-3.47c.5114721-.4567657 1.224789-.6123295 1.88-.41 1.4257127.4552309 2.9862834.0728139 4.04-.99l4.82-4.82c1.1283835-1.1244945 1.7626307-2.6519723 1.7626307-4.245s-.6342472-3.1205055-1.7626307-4.245zm-3.18 6.01-2.83 2.83c-.4669155.4703463-1.1022514.7348744-1.765.7348744s-1.2980845-.2645281-1.765-.7348744c-.4734561-.4631831-.7402233-1.0976563-.74-1.76.0014644-.6649328.267762-1.3018878.74-1.77l2.83-2.83c.6175136-.6908004 1.5664506-.9834102 2.4657638-.7603315.8993131.2230787 1.601489.9252546 1.8245677 1.8245677.2230787.8993132-.0695311 1.8482502-.7603315 2.4657638z" fill="#9e9e9e" data-original="#9e9e9e" style="" class=""/><path id="Shape" d="m57.24 21.46-.7-.7c-1.5045872-1.5011091-3.693226-2.090153-5.748-1.547 1.0384306.2592134 1.9877524.7936387 2.748 1.547l.7.7c1.1283835 1.1244945 1.7626307 2.6519723 1.7626307 4.245s-.6342472 3.1205055-1.7626307 4.245l-4.82 4.82c-.404589.4054372-.8911084.7197827-1.427.922.131119.0082746.2609141.0310809.387.068 1.4257127.4552309 2.9862834.0728139 4.04-.99l4.82-4.82c1.1283835-1.1244945 1.7626307-2.6519723 1.7626307-4.245s-.6342472-3.1205055-1.7626307-4.245z" fill="#707070" data-original="#707070" style=""/><path id="Shape" d="m45.38 35.76c-.655211-.2023295-1.3685279-.0467657-1.88.41l-3.9 3.47-13.51 12.03-4.129 3.678c.2085793.449842.6200282.7725423 1.1066144.8679204.4865863.095378.989415-.0481106 1.3523856-.3859204l4.67-4.16 13.51-12.03 3.9-3.47c.1070975-.091055.2237841-.1701873.348-.236-.4959056.0341819-.9938261-.0248359-1.468-.174z" fill="#707070" data-original="#707070" style=""/><path id="Shape" d="m36 23.36v14.69h-.01l-1.71 1.93-5.93 6.66c-1.7728323.2438701-3.5604778.3641602-5.35.36-7.18 0-13-1.79-13-4v-19.64c4.2398063 1.1290905 8.6126155 1.6807372 13 1.64 4.3873845.0407372 8.7601937-.5109095 13-1.64z" fill="#a0b9cf" data-original="#02a9f4" style="" class=""/><path id="Shape" d="m33 24.072v13.978h-.01l-1.71 1.93-5.93 6.66c-1.2757504.1767508-2.5598076.2872325-3.847.331.492.018.99.029 1.5.029 1.7895222.0041602 3.5771677-.1161299 5.35-.36l5.93-6.66 1.71-1.93h.007v-14.69c-.944.267-1.949.505-3 .712z" fill="#0377bc" data-original="#0377bc" style="" class=""/><g fill="#000"><path id="Shape" d="m37 9c0-3.282-7.043-5-14-5s-14 1.718-14 5 7.043 5 14 5 14-1.718 14-5zm-26 0c0-1.058 4.556-3 12-3s12 1.942 12 3-4.556 3-12 3-12-1.942-12-3z" fill="#246891" data-original="#000000" style="" class=""/><path id="Shape" d="m59.961 15.894c-.457-2.966-3.4-5.272-8.747-6.853-1.8540858-.55963083-3.7355347-1.02423557-5.637-1.392-2.03-4.411-11.217-7.649-22.577-7.649-12.9 0-23 4.173-23 9.5v7c0 3.133 3.5 5.866 9 7.586v11.814c-5.728 1.769-9 4.516-9 7.6v7c0 5.327 10.1 9.5 23 9.5s23-4.173 23-9.5v-7c-.0676285-1.4940618-.7489425-2.8939576-1.883-3.869l3.041-2.708c.247179-.2268071.5945758-.3086367.917-.216 1.7808515.5755546 3.7340412.1007888 5.052-1.228l4.822-4.822c2.5714929-2.5686337 2.7453822-6.6793766.4-9.456 1.2038066-1.493765 1.7816267-3.3960549 1.612-5.307zm-1.978.3c.0924588 1.2769938-.2864483 2.5435754-1.065 3.56-2.7668489-2.4509584-6.9642807-2.3216381-9.575.295l-4.822 4.822c-1.3260796 1.3186465-1.8008427 3.2694631-1.229 5.05.0938611.3215782.0131145.6688266-.213.916l-4.079 4.584v-11.335c5.5-1.72 9-4.453 9-7.586v-6.735c1.387.29 2.943.689 4.646 1.194 4.475 1.323 7.012 3.134 7.337 5.241zm-30.122 29.491c-1.6118085.210091-3.235557.3153123-4.861.315-7.444 0-12-1.942-12-3v-2.258c2.621 1.535 7.426 2.258 12 2.258 2.6824027.0223041 5.3590331-.2523683 7.981-.819zm5.8-6.519c-2.187 1.134-6.243 1.834-10.661 1.834-7.444 0-12-1.942-12-3v-1.3c2.583 1.517 7.306 2.3 12 2.3s9.417-.785 12-2.3v.969zm-31.661-22.666v-3c1.9569508 1.6356313 4.24152151 2.8331555 6.7 3.512.52605122.1684468 1.08905311-.1214488 1.25749996-.6475.16844684-.5260512-.12144876-1.0890531-.64749996-1.2575-4.58-1.461-7.31-3.558-7.31-5.607 0-3.548 8.624-7.5 21-7.5s21 3.952 21 7.5-8.624 7.5-21 7.5c-2.2966167.0052595-4.5911384-.1390459-6.869-.432-.3542288-.0468018-.7065182.0989304-.9241642.3823007-.2176459.2833702-.2675829.6613279-.131.9915.1365829.330172.4389354.5623975.7931642.6091993 2.364705.3045986 4.7467646.4545838 7.131.449 9.478 0 17.441-2.255 21-5.564v3.064c0 3.548-8.624 7.5-21 7.5s-21-3.952-21-7.5zm9 8.146c3.9314194.9298267 7.9602337 1.3844112 12 1.354 4.0397663.0304112 8.0685806-.4241733 12-1.354v1.354c0 1.058-4.556 3-12 3s-12-1.942-12-3zm0 4.054c2.583 1.517 7.306 2.3 12 2.3s9.417-.785 12-2.3v1.3c0 1.058-4.556 3-12 3s-12-1.942-12-3zm0 4c2.583 1.517 7.306 2.3 12 2.3s9.417-.785 12-2.3v1.3c0 1.058-4.556 3-12 3s-12-1.942-12-3zm12 25.3c-12.376 0-21-3.952-21-7.5v-2.995c1.9561879 1.6356596 4.24113965 2.8316784 6.7 3.507.52055602.1473669 1.063918-.1459885 1.22629006-.6620611.16237204-.5160725-.11513341-1.0676977-.62629006-1.2449389-4.57-1.455-7.3-3.55-7.3-5.605 0-2 2.651-4.057 7-5.5v5c0 3.436 7.257 5 14 5 .982 0 1.947-.036 2.891-.1l-2.76 3.1h-.131c-2.295644.0074559-4.5891787-.1398782-6.865-.441-.5473142-.0745584-1.0514416.3086858-1.126.856s.3086858 1.0514416.856 1.126c1.8295888.2431445 3.6708983.3880191 5.516.434-.8569385 1.0400725-.7731132 2.5634961.1927649 3.5032694s2.4910262.9818373 3.5072351.0967306l4.442-3.955c6.648-.781 11.811-2.691 14.474-5.176v3.056c.003 3.548-8.621 7.5-20.997 7.5zm21-14.5c0 2.724-4.863 5.406-11.741 6.688l10.364-9.227c.7873873.6220041 1.2851366 1.5397859 1.377 2.539zm14-17.793c.0034137 1.3270011-.5241007 2.6002372-1.465 3.536l-4.822 4.822c-.7908502.7962571-1.9617836 1.0810683-3.03.737-.9945824-.303953-2.075683-.0670358-2.852.625l-22.075 19.655c-.2353309.2020209-.5864776.188983-.8061793-.0299331-.2197016-.2189161-.2339973-.5700138-.0328207-.8060669l19.658-22.08c.6926279-.7756648.9286141-1.8573316.622-2.851-.342755-1.0678137-.0576384-2.2376415.738-3.028l4.822-4.822c1.8928112-1.9025895 4.9540837-1.959247 6.916-.128-.4646202.5084725-.9563348.9915078-1.473 1.447-1.3927095-.8670137-3.1954459-.6827924-4.384.448l-2.829 2.829c-1.3669047 1.3669048-1.3669047 3.5830952 0 4.95 1.3669048 1.3669047 3.5830952 1.3669047 4.95 0l2.829-2.829c1.0256177-1.0167945 1.3175816-2.5609416.734-3.882.5411028-.4730812 1.0574548-.9737457 1.547-1.5.6167044.8440356.9503151 1.8616708.953 2.907zm-4.207 0c.0008428.3980249-.1571752.7799318-.439 1.061l-2.829 2.832c-.5868026.5868025-1.5381974.5868025-2.1249999-.0000001-.5868026-.5868025-.5868026-1.5381973-.0000001-2.1249999l2.829-2.829c.2810682-.2818248.6629751-.4398428 1.061-.439.035 0 .068.008.1.01-.4194721.329888-.5040054.9319546-.1915972 1.3646024s.9105017.5418003 1.3555972.2473976c.025-.017.115-.079.23-.162.006.014.009.027.009.04z" fill="#246891" data-original="#000000" style="" class=""/></g></g></g></g></svg>
