<?xml version="1.0"?>
<svg xmlns="http://www.w3.org/2000/svg" xmlns:xlink="http://www.w3.org/1999/xlink" xmlns:svgjs="http://svgjs.com/svgjs" version="1.1" width="512" height="512" x="0" y="0" viewBox="0 0 512.192 512.192" style="enable-background:new 0 0 512 512" xml:space="preserve" class=""><g><g xmlns="http://www.w3.org/2000/svg"><g><g clip-rule="evenodd" fill-rule="evenodd"><path d="m212.585 128.144c24.373-21.263 49.928-22.699 70.16-17.085l-39.202-41.095-41.559 21.88-18.101 61.339z" fill="#7bdaa9" data-original="#7bdaa9" style="" class=""/><path d="m308.975 73.962c43.998 40.471 52.202 1.06 88.08 27.122 13.121-20.619 6.987-48.224-13.632-61.345-20.62-13.121-48.224-6.987-61.346 13.633z" fill="#88a9d3" data-original="#e5ecf5" style="" class=""/><path d="m320.981 136.287c20.619 13.12 49.852 6.005 62.972-14.613l13.103-20.59c-35.878-26.062-44.082 13.348-88.08-27.122-9.468 14.878-9.03 35.323-.246 49.525 6.409 4.641 10.747 9.408 12.251 12.8z" fill="#fbf2e2" data-original="#fbf2e2" style="" class=""/><path d="m292.52 199.163 40.489 42.762 58.943-20.624-11.289-32.266-32.414 8.77-27.267-61.518c-1.503-3.393-5.841-8.159-12.251-12.801-6.692-4.847-15.643-9.558-25.984-12.427-20.233-5.614-45.787-4.178-70.16 17.085l-73.936 64.501c-14.101 12.302-21.783 23.863-25.075 34.28h128.75z" fill="#8cc7b1" data-original="#bdedd4" style="" class=""/><path d="m143.035 279.179 99.288-52.254h-128.75c-6.668 21.101 4.682 37.509 17.187 45.877 3.796 2.539 7.942 4.639 12.275 6.377z" fill="#abdde9" data-original="#e08ea2" style="" class=""/><path d="m201.415 288.026 53.439 2.277 35.608-47.368-48.138-16.009-99.288 52.254c21.334 8.559 47.232 8.371 58.379 8.846z" fill="#abdde9" data-original="#e08ea2" style="" class=""/><path d="m254.854 290.303 45.479 10.053 8.216-17.896c7.853-17.107-.229-33.586-18.087-39.525z" fill="#abdde9" data-original="#e08ea2" style="" class=""/><path d="m238.208 327.19 44.351 11.884 17.774-38.719-45.479-10.052z" fill="#abdde9" data-original="#e08ea2" style="" class=""/><path d="m212.805 383.481 74.379 19.93c4.647-17.342 8.876-33.053-15.936-39.701l11.31-24.636-44.351-11.884z" fill="#88a9d3" data-original="#e5ecf5" style="" class=""/><path d="m183.827 375.716 28.978 7.765 19.151-42.437-29.069-7.789z" fill="#b0c5e0" data-original="#b0c5e0" style="" class=""/><path d="m202.887 333.255 29.069 7.789 22.898-50.741-32.074-1.367z" fill="#d15573" data-original="#d15573" style=""/><path d="m18.627 362.509 430.439 115.336c23.904 6.405 48.708-7.914 55.113-31.819 2.098-7.831-2.649-16.239-10.607-18.371-8.002-2.144-16.227 2.604-18.371 10.606-2.12 7.911-10.459 12.726-18.371 10.606l-430.438-115.336c-8.002-2.144-16.227 2.604-18.371 10.607-2.099 7.831 2.649 16.239 10.606 18.371z" fill="#8cc7b1" data-original="#bdedd4" style="" class=""/><path d="m391.952 221.301 18.337-6.416c18.388-6.434 11.485-36.972-11.967-30.628l-17.659 4.778z" fill="#88a9d3" data-original="#e5ecf5" style="" class=""/><path d="m308.975 73.962c4.802 4.418 9.178 7.882 13.21 10.585.552-1.046 1.147-2.076 1.79-3.085l13.102-20.59c10.733-16.865 31.155-24.037 49.518-18.91-20.496-15.702-50.618-10.432-64.518 11.41z" fill="#b0c5e0" data-original="#b0c5e0" style="" class=""/><path d="m320.981 136.287c1.802 1.147 3.672 2.136 5.589 2.978-10.249-13.729-13.901-36.701-4.384-54.718-4.031-2.701-8.408-6.168-13.21-10.585-9.468 14.878-9.03 35.323-.246 49.525 6.409 4.641 10.747 9.408 12.251 12.8z" fill="#f6dfb9" data-original="#f6dfb9" style="" class=""/><path d="m273.881 109.14c-18.557-2.895-40.362.741-61.296 19.004l-73.936 64.501c-14.101 12.302-21.783 23.863-25.075 34.28h22.5c3.292-10.417 10.974-21.978 25.075-34.28l73.936-64.501c12.923-11.274 26.178-16.973 38.796-19.004z" fill="#7bdaa9" data-original="#7bdaa9" style="" class=""/><path d="m143.035 279.179 11.068-5.825c-.282-.182-.563-.366-.842-.552-12.505-8.367-23.855-24.775-17.187-45.877h-22.5c-6.668 21.101 4.682 37.509 17.187 45.877 3.795 2.539 7.941 4.639 12.274 6.377z" fill="#d15573" data-original="#d15573" style=""/><path d="m154.099 273.357-11.063 5.822c12.534 5.028 26.641 7.038 38.408 7.936-9.718-3.569-19.043-8.299-27.345-13.758z" fill="#d15573" data-original="#d15573" style=""/><path d="m18.627 362.509 22.752 6.096c-7.957-2.132-12.705-10.54-10.607-18.371 2.143-7.997 10.359-12.745 18.357-10.61l-22.738-6.092c-8.002-2.144-16.227 2.604-18.371 10.607-2.098 7.83 2.65 16.238 10.607 18.37z" fill="#7bdaa9" data-original="#7bdaa9" style="" class=""/><path d="m212.805 383.481 74.379 19.93c1.506-5.621 2.967-11.07 3.411-16.095l-70.942-19.009z" fill="#b0c5e0" data-original="#b0c5e0" style="" class=""/></g><g><path d="m211.837 180.879-9.861-11.304 11.304-9.861 9.861 11.304zm22.607-19.722-9.861-11.304 11.304-9.861 9.861 11.304z" fill="#ffffff" data-original="#ffffff" style="" class=""/></g></g><g><path d="m380.929 454.098h15v14.999h-15z" transform="matrix(.259 -.966 .966 .259 -157.976 717.314)" fill="#000000" data-original="#000000" style="" class=""/><path d="m495.514 420.41c-11.984-3.212-24.346 3.925-27.557 15.909-1.052 3.928-5.261 6.356-9.186 5.304l-162.474-43.535c1.623-6.843 2.658-13.696 1.298-20.11-1.777-8.379-7.072-14.516-16.105-18.603l33.875-73.787c4.549-9.91 4.887-20.361.949-29.428-4.103-9.445-12.442-16.67-23.486-20.342l-4.187-1.393h26.938l15.323 16.183 81.863-28.644c13.772-4.819 17.692-18.757 14.388-29.424-3.284-10.6-14.322-19.98-30.79-15.523l-43.864 11.868-17.421-39.304c3.057.541 6.181.818 9.33.818 4.186 0 8.418-.484 12.592-1.467 13.829-3.259 25.959-11.727 33.28-23.232l13.103-20.59c15.375-24.16 8.228-56.324-15.933-71.698-24.163-15.376-56.326-8.226-71.699 15.933l-13.102 20.59c-6.992 10.986-9.496 24.604-7.553 37.471-2.678-1.108-5.456-2.111-8.312-2.98l-41.721-43.738-49.374 25.995-18.379 62.283-43.591 38.028c-12.265 10.7-20.749 21.546-25.4 32.431h-43.717v-15h-15v15h-42.002v15h42.001v15h15v-15h39.746c-.263 2.558-.321 5.116-.158 7.672.932 14.572 9.097 28.036 22.4 36.938 22.169 14.833 54.682 15.85 70.307 16.338 1.563.049 2.973.093 4.199.145l10.311.439-31.807 70.861-151.266-40.531c-5.805-1.556-11.869-.757-17.074 2.248s-8.928 7.857-10.482 13.662c-1.556 5.805-.758 11.869 2.247 17.073s7.857 8.928 13.662 10.483l348.068 93.265 3.883-14.488-348.068-93.265c-1.936-.519-3.553-1.76-4.555-3.495-1.001-1.735-1.268-3.755-.749-5.691.519-1.935 1.76-3.552 3.494-4.554 1.735-1.001 3.756-1.267 5.691-.75l430.438 115.336c11.983 3.214 24.346-3.926 27.557-15.909 1.071-3.995 5.189-6.375 9.186-5.303 3.995 1.07 6.373 5.191 5.304 9.186-2.579 9.626-8.795 17.696-17.5 22.722-8.706 5.026-18.804 6.373-28.428 3.794l-38.903-10.424-3.883 14.488 38.903 10.424c4.488 1.203 9.046 1.797 13.579 1.797 9.102 0 18.104-2.397 26.23-7.089 12.176-7.03 20.873-18.333 24.489-31.831 3.212-11.984-3.926-24.345-15.908-27.556zm-212.591-39.319c.748 3.527.061 8.088-1.117 13.114l-58.535-15.684 12.899-28.583.222.059.364-1.356 5.667-12.557 29.614 7.935-11.31 24.637 8.581 2.299c12.156 3.256 13.179 8.077 13.615 10.136zm-23.739-82.15 30.456 6.732-11.255 24.518-29.71-7.961zm43.372-36.806c2.249 5.179 1.964 11.125-.823 17.196l-5.69 12.395-28.191-6.231 25.08-33.362c4.493 2.438 7.836 5.884 9.624 10.002zm-31.175-42.71 19.687-10.888 10.309 10.888zm128.899-27.928c9.03-2.447 11.78 3.019 12.544 5.482.877 2.831.958 8.738-5.013 10.827l-11.258 3.939-6.15-17.576zm-71.875-134.099c5.271-8.282 13.496-14.026 23.161-16.174 9.661-2.148 19.549-.429 27.831 4.842 15.005 9.549 20.781 28.205 14.721 44.223-14.756-8.264-25.698-6.699-35.508-5.288-11.39 1.64-21.353 3.06-39.858-12.433zm-16.869 28.626c22.326 17.684 36.534 15.648 49.21 13.824 8.627-1.242 15.72-2.26 25.988 3.484l-9.109 14.315c-5.24 8.234-14.012 14.315-24.066 16.685-9.412 2.217-19.126.962-26.964-3.427-2.434-4.01-6.671-8.413-12.205-12.586-5.369-9.513-6.329-21.78-2.854-32.295zm-103.255 10.981 33.745-17.766 20.521 21.512c-16.16-.015-35.594 4.905-54.893 21.742l-9.285 8.1zm-64.702 101.292 73.937-64.501c22.379-19.524 44.736-19.709 59.554-16.426 10.828 2.4 19.724 6.917 26.112 11.347.054.081.104.164.158.245l.098-.066c6.019 4.217 9.756 8.328 10.688 10.43l29.874 67.399 31.889-8.628 6.509 18.602-47.279 16.543-55.04-58.129-10.893 10.313 11.231 11.861-40.027 22.138h-115.168c4.112-6.954 10.251-14.056 18.357-21.128zm-24.42 42.845c-.141-2.2-.004-4.443.356-6.716h92.454l-69.251 36.446c-2.743-1.256-5.36-2.679-7.787-4.302-4.443-2.974-14.875-11.404-15.772-25.428zm78.206 39.239c-8.088-.253-21.146-.664-34.325-3.255l79.949-42.076 35.214 11.71-26.972 35.881-49.495-2.109c-1.278-.054-2.744-.099-4.371-.151zm46.092 16.943-15.716 34.827-14.406-3.86 14.204-31.645zm-36.344 44.828 14.376 3.852-12.899 28.583-14.314-3.835z" fill="#000000" data-original="#000000" style="" class=""/></g></g></g></svg>
