<?xml version="1.0"?>
<svg xmlns="http://www.w3.org/2000/svg" xmlns:xlink="http://www.w3.org/1999/xlink" xmlns:svgjs="http://svgjs.com/svgjs" version="1.1" width="512" height="512" x="0" y="0" viewBox="0 0 256 256" style="enable-background:new 0 0 512 512" xml:space="preserve" class=""><g><g xmlns="http://www.w3.org/2000/svg"><g><g><path d="m202.375 128.886v-115.553h-132.321v115.553l-39.897 81.506v32.273h211.715v-32.273z" fill="#7086a1" data-original="#87828e" style="" class=""/><path d="m70.055 128.887-39.9 81.51v32.27h15v-32.27l39.9-81.51z" fill="#a4a4a5" data-original="#a4a4a5" style="" class=""/><path d="m202.375 128.887h-15l39.5 81.51v32.27h15v-32.27z" fill="#796e84" data-original="#796e84" style="" class=""/><g fill="#ff4a73"><path d="m72.463 71.11h-2.41v-57.777h34.801v25.385c.001 17.89-14.501 32.392-32.391 32.392z" fill="#cb6980" data-original="#ff4a73" style="" class=""/><path d="m72.463 71.11h-2.41v57.777h34.801v-25.385c.001-17.89-14.501-32.392-32.391-32.392z" fill="#cb6980" data-original="#ff4a73" style="" class=""/><path d="m199.966 71.11h2.41v-57.777h-34.801v25.385c-.001 17.89 14.501 32.392 32.391 32.392z" fill="#cb6980" data-original="#ff4a73" style="" class=""/><path d="m199.966 71.11h2.41v57.777h-34.801v-25.385c-.001-17.89 14.501-32.392 32.391-32.392z" fill="#cb6980" data-original="#ff4a73" style="" class=""/></g><path d="m70.055 13.337h15v115.55h-15z" fill="#cd849e" data-original="#f973a3" style="" class=""/><path d="m187.375 13.337h15v115.55h-15z" fill="#e1a7ba" data-original="#ea2a6a" style="" class=""/></g><g><g><g fill="#f9d335"><path d="m23.031 113.797c-.009.154-.019.356-.035.65.011-.218.021-.436.035-.65z" fill="#9ac5c9" data-original="#f9d335" style="" class=""/><path d="m22.996 114.447c-.007.15-.019.294-.024.448.009-.174.017-.318.024-.448z" fill="#9ac5c9" data-original="#f9d335" style="" class=""/><path d="m22.972 75.543.086.94-.125-.94s-4.401 12.801-14.002 16.001c0 0 13.337 3.231 14.002 23.35l.114-1.385c-.006.094-.009.192-.015.287.026-.461.036-.536.126-1.629 1.719-17.679 13.817-20.623 13.817-20.623-9.602-3.2-14.003-16.001-14.003-16.001z" fill="#9ac5c9" data-original="#f9d335" style="" class=""/></g></g><g><g fill="#f9d335"><path d="m233.156 91.463c-.009.154-.019.356-.035.65.01-.218.021-.436.035-.65z" fill="#9ac5c9" data-original="#f9d335" style="" class=""/><path d="m233.121 92.113c-.007.15-.019.294-.024.448.009-.173.017-.317.024-.448z" fill="#9ac5c9" data-original="#f9d335" style="" class=""/><path d="m233.097 53.209.086.94-.125-.94s-4.401 12.801-14.002 16.001c0 0 13.337 3.231 14.002 23.35l.114-1.385c-.006.094-.009.192-.015.287.026-.461.036-.536.126-1.629 1.719-17.679 13.817-20.623 13.817-20.623-9.602-3.2-14.003-16.001-14.003-16.001z" fill="#9ac5c9" data-original="#f9d335" style="" class=""/></g></g><g><g fill="#f9d335"><path d="m46.194 67.135c-.012.207-.026.477-.047.872.015-.293.029-.585.047-.872z" fill="#9ac5c9" data-original="#f9d335" style="" class=""/><path d="m46.147 68.006c-.01.201-.025.395-.032.6.013-.231.023-.425.032-.6z" fill="#9ac5c9" data-original="#f9d335" style="" class=""/><path d="m46.115 15.837.115 1.26-.168-1.26s-5.902 17.166-18.777 21.457c0 0 17.884 4.332 18.777 31.312l.153-1.857c-.008.127-.013.258-.021.385.035-.618.048-.719.169-2.185 2.305-23.707 18.529-27.656 18.529-27.656-12.875-4.29-18.777-21.456-18.777-21.456z" fill="#9ac5c9" data-original="#f9d335" style="" class=""/></g></g></g><g><path d="m192.096 72.554v23.698c0 1.733-1.405 3.138-3.138 3.138h-18.441v70.958c0 1.417-1.149 2.566-2.566 2.566h-63.871c-1.417 0-2.566-1.149-2.566-2.566v-70.957h-18.443c-1.733 0-3.138-1.405-3.138-3.138v-23.699c0-1.733 1.405-3.138 3.138-3.138h30.916v8.935c0 5.915 4.795 10.71 10.71 10.71h22.635c5.915 0 10.71-4.795 10.71-10.71v-8.935h30.916c1.733 0 3.138 1.405 3.138 3.138z" fill="#9ac5c9" data-original="#f9d335" style="" class=""/><path d="m89.047 72.551v23.698c0 1.738 1.404 3.141 3.141 3.141h-9.115c-1.738 0-3.141-1.404-3.141-3.141v-23.698c0-1.732 1.404-3.136 3.141-3.136h9.115c-1.737.001-3.141 1.404-3.141 3.136z" fill="#96abc1" data-original="#f9e27d" style="" class=""/><path d="m113.192 172.915h-9.115c-1.416 0-2.564-1.149-2.564-2.564v-70.96h9.115v70.96c-.001 1.416 1.148 2.564 2.564 2.564z" fill="#96abc1" data-original="#f9e27d" style="" class=""/><g fill="#f2c300"><path d="m161.402 99.391h9.115v70.96c0 1.416-1.148 2.564-2.564 2.564h-9.115c1.416 0 2.564-1.149 2.564-2.564z" fill="#8daabf" data-original="#f2c300" style="" class=""/><path d="m192.096 72.551v23.698c0 1.738-1.404 3.141-3.141 3.141h-9.115c1.738 0 3.141-1.404 3.141-3.141v-23.698c0-1.732-1.404-3.136-3.141-3.136h9.115c1.738.001 3.141 1.404 3.141 3.136z" fill="#8daabf" data-original="#f2c300" style="" class=""/></g></g></g><g fill="#5f266d"><path d="m212.855 169.97-1.28-3.31c-.79-2.06-3.1-3.08-5.17-2.29-2.06.8-3.08 3.11-2.29 5.17l1.28 3.32c.776 2.011 3.057 3.1 5.17 2.29 2.06-.8 3.09-3.11 2.29-5.18z" fill="#5f266d" data-original="#5f266d" style="" class=""/><path d="m222.575 195.16-4.32-11.19c-.79-2.06-3.11-3.09-5.17-2.29-2.06.79-3.09 3.11-2.29 5.17l4.32 11.19c.817 2.129 3.225 3.076 5.17 2.29 2.06-.79 3.09-3.11 2.29-5.17z" fill="#5f266d" data-original="#5f266d" style="" class=""/><path d="m245.385 208.46-39.01-80.49c0-2.976 0-111.353 0-114.64 0-2.21-1.79-4-4-4-16.049 0-116.15 0-132.32 0-2.21 0-4 1.79-4 4v20.13c-10.71-3.65-16.08-18.69-16.16-18.93-1.225-3.588-6.396-3.589-7.61.01-1.47 4.25-7.24 15.95-16.26 18.96-3.715 1.239-3.601 6.649.28 7.67.61.16 14.99 4.21 15.76 27.57.17 5.138 7.767 5.136 8.045.085.951-17.577 8.661-25.622 15.945-27.705v86.85l-39.4 80.48c-.324.619-.5 1.25-.5 1.94v32.28c0 2.2 1.79 4 4 4h211.72c2.21 0 4-1.8 4-4v-32.28c0-.734-.18-1.308-.49-1.93zm-199.28-158.51c-2.86-6.3-6.8-10.29-10.26-12.77 4.58-3.46 7.96-8.11 10.24-12.07 2.29 3.96 5.67 8.62 10.26 12.09-3.45 2.47-7.37 6.46-10.24 12.75zm62.75-32.62h54.72v21.39c0 10.54 4.5 20.05 11.69 26.7h-15.976l-19.274-13.195v-5.044c5.332-.586 9.495-5.118 9.495-10.604 0-7.441-6.054-13.495-13.495-13.495s-13.495 6.054-13.495 13.495c0 2.209 1.791 4 4 4s4-1.791 4-4c0-3.03 2.465-5.495 5.495-5.495s5.495 2.465 5.495 5.495c0 1.472-1.197 2.669-2.668 2.669-3.765 0-6.827 3.063-6.827 6.826v6.153l-19.275 13.195h-15.575c7.19-6.65 11.69-16.16 11.69-26.7zm15.84 67.73c-3.7 0-6.71-3.01-6.71-6.71v-6.825l18.03-12.344 18.03 12.344v6.825c0 3.7-3.01 6.71-6.71 6.71zm-50.64-9.91c.63.03 1.26.09 1.88.17v20.93c0 3.94 3.2 7.14 7.14 7.14h14.44v21.5h-23.46zm31.46 24.24c0-2.21-1.79-4-4-4-11.945 0 5.676 0-17.58 0 0-7.634 0-14.204 0-21.97h26.05v4.93c0 8.11 6.6 14.71 14.71 14.71h7.32v16.808c0 5.33 4.337 9.667 9.667 9.667h4.708c2.209 0 4-1.791 4-4s-1.791-4-4-4h-4.708c-.919 0-1.667-.748-1.667-1.667v-16.808h7.32c8.11 0 14.71-6.6 14.71-14.71v-4.93h26.05v21.97c-10.581 0-8.249 0-17.58 0-2.21 0-4 1.79-4 4v69.53h-61c0-12.393 0-55.083 0-69.53zm69 4h14.44c3.94 0 7.14-3.2 7.14-7.14v-20.87c.75-.11 1.51-.19 2.28-.23v49.74h-23.86zm23.86-86.06v49.74c-14.92-.83-26.8-13.23-26.8-28.35v-21.39zm-124.32 0h26.8v21.39c0 15.138-11.869 27.492-26.8 28.35zm-1.51 115.56h24.97v37.46c0 3.62 2.94 6.57 6.56 6.57h63.88c3.62 0 6.56-2.95 6.56-6.57v-37.46h25.35l35.62 73.5h-198.92zm165.33 105.78h-203.72v-24.28h203.72z" fill="#5f266d" data-original="#5f266d" style="" class=""/><path d="m26.966 115.119c.655-12.492 6.285-18.451 10.959-19.689 3.89-.944 4.107-6.429.31-7.68-7.53-2.51-11.41-13.3-11.48-13.51-1.263-3.634-6.389-3.566-7.6 0-.04.11-3.97 11-11.49 13.51-3.839 1.272-3.578 6.736.27 7.67.43.11 10.45 3.02 11 19.61.199 5.057 7.745 5.141 8.031.089zm-10.011-23.679c2.5-2.12 4.49-4.67 6-7.04 1.51 2.38 3.5 4.93 6.01 7.06-2.05 1.66-4.21 3.99-6 7.25-1.79-3.26-3.95-5.6-6.01-7.27z" fill="#5f266d" data-original="#5f266d" style="" class=""/><path d="m248.365 65.42c-7.53-2.51-11.4-13.28-11.49-13.52-1.215-3.558-6.345-3.619-7.6.01-.04.11-3.97 11-11.48 13.51-3.808 1.254-3.574 6.74.32 7.68.1.02 10.39 2.71 10.94 19.59.173 5.045 7.751 5.129 8.035.096.709-13.047 6.683-18.523 10.955-19.686 3.886-.944 4.109-6.424.32-7.68zm-15.27 10.96c-1.79-3.27-3.96-5.61-6.01-7.27 2.5-2.12 4.48-4.67 5.99-7.04 1.51 2.37 3.5 4.93 6.01 7.05-2.04 1.66-4.2 4-5.99 7.26z" fill="#5f266d" data-original="#5f266d" style="" class=""/></g></g></g></svg>
