<?xml version="1.0"?>
<svg xmlns="http://www.w3.org/2000/svg" xmlns:xlink="http://www.w3.org/1999/xlink" xmlns:svgjs="http://svgjs.com/svgjs" version="1.1" width="512" height="512" x="0" y="0" viewBox="0 0 512.001 512.001" style="enable-background:new 0 0 512 512" xml:space="preserve"><g><g xmlns="http://www.w3.org/2000/svg"><g clip-rule="evenodd" fill-rule="evenodd"><g><ellipse cx="256.001" cy="256.001" fill="#60a4ff" rx="181.774" ry="181.774" transform="matrix(.707 -.707 .707 .707 -106.039 256.001)" data-original="#60a4ff" style=""/><g fill="#cbe558"><path d="m342.259 182.587c-7.952 20.852-43.493 16.713-36.088 38.13 2.645 7.65-14.475 10.428-22.941 22.759-10.193 14.848-16.39 8.25-3.196 29.324 3.898 6.226 40.386 14.17 9.07 48.648-10.779 11.867-6.657 25.035-.098 30.536 15.419 12.931 31.705-29.839 52.938-35.668 20.588-5.651 19.029-24.063 28.486-26.99.568-.176 14.872-5.827 22.117.283 8.675 7.316 16.36.772 23.49 2.26 2.836.592 9.237 7.391 15.541 11.362 4.042-15.062 6.197-30.895 6.197-47.232 0-23.329-4.395-45.632-12.402-66.126-3.085-.486-5.582-1.759-7.14-4.11-8.125-12.254-28.539-3.418-34.74-7.388-16.124-10.322-32.217-19.431-41.234 4.212z" fill="#cbe558" data-original="#cbe558" style=""/><path d="m227.087 213.198c4.728-.57 20.112-12.156 26.696-26.329 7.004-8.324 2.831-18.671-2.414-20.502-6.246-2.18-16.901-8.236-21.847-7.228-5.809 1.184-12.32 2.13-18.614 1.182-13.411-2.02-17.173 14.164-7.523 18.102 4.433 1.809 9.745 8.551 10.258 13.26.209 1.918 6.03 22.408 13.444 21.515z" fill="#cbe558" data-original="#cbe558" style=""/><path d="m210.304 338.778c-9.22-1.193-11.161-12.253-22.173-16.849-5.511-2.3-17.228 2.918-20.813 7.681 0 19.419-25.606 7.457 2.811 43.036 8.863 11.096-6.765 13.164-6.032 33.237.03.827.31 3.72.917 7.515 8.337 4.83 17.095 9.017 26.203 12.493.516-7.942-2.233-16.166 17.855-29.791 12.74-8.642 31.396-53.418 1.232-57.322z" fill="#cbe558" data-original="#cbe558" style=""/><path d="m144.08 283.229c1.267-6.665 13.445-7.298 23.994-7.472 9.466-.157.107-13.24 11.536-18.659 14.097-6.683 23.188-4.721 14.171-23.261-2.637-5.422-14.715-5.161-12.886-28.467.312-3.984-22.848-7.748-32.537-15.532-19.989-16.059-27.879 6.352-40.361 6.776-6.021.204-14.242-.694-23.005-2.384-4.437 12.282-7.589 25.178-9.293 38.527 2.857 1.672 5.34 3.591 7.246 5.809 5.931 6.903 27.848 18.526 32.471 37.769 7.657 31.876 27.283 14.162 28.664 6.894z" fill="#cbe558" data-original="#cbe558" style=""/></g></g><path d="m169.624 188.506c14.422-16.065 23.733-26.437 38.155-42.502 6.989-7.786 9.671-11.626 11.868-21.873 3.389-15.803 9.138-30.591 11.885-48.393 2.723-17.644 2.496-38.249-5.904-65.738h-102.929c5.484 20.468 9.862 28.579-9.109 55.551-12.716 18.078-18.46 22.814-31.177 40.892-8.582 12.201-11.073 12.78-10.941 27.566.182 20.357-.941 35.505-.971 55.731-.015 9.765-.639 12.322 4.126 20.809 1.359 2.421 2.659 4.735 3.919 6.98 6.173 10.993 11.404 20.309 18.06 32.162.173.308.347.606.523.895.002.001.003.003.003.005 2.287 3.752 4.805 5.878 7.281 6.881 5.143 2.083 10.102-.68 12.429-3.782 8.333-11.11 6.875-15.517 2.49-29.095-3.592-11.126-5.036-15.597-8.629-26.723-.176-.545-.345-1.065-.508-1.56-3.14-9.593-3.682-10.351-1.897-21.291 1.55-9.502 2.823-17.302 4.372-26.804.269-1.649.51-3.076.754-4.33 1.473-7.576 3.037-8.847 11.316-14.557 1.613-1.112 3.052-2.105 4.372-3.016 7.117-4.908 10.776-7.431 19.467-13.426 9.95-6.862 16.364-5.009 19.227 1.86 1.618 3.883.74 1.774 2.358 5.657 4.387 10.527.95 14.846-6.068 24.386-7.803 10.608-9.125 12.405-16.929 23.012-11.09 15.687 11.383 32.08 22.457 20.703z" fill="#ffdcd5" data-original="#ffdcd5" style=""/><path d="m159.18 387.871c-2.197-10.247-4.879-14.087-11.868-21.873-14.422-16.065-23.733-26.437-38.155-42.502-6.208-6.378-15.998-4.029-21.449 2.03-4.273 4.749-5.88 11.779-1.005 18.672 7.804 10.608 9.126 12.405 16.929 23.013 7.018 9.541 10.456 13.859 6.068 24.386-1.618 3.883-.739 1.774-2.358 5.657-2.863 6.868-9.277 8.722-19.227 1.859-10.304-7.107-13.535-9.335-23.84-16.441-9.65-6.656-10.177-7.281-12.07-18.887-1.549-9.502-2.822-17.302-4.372-26.804-1.877-11.506-1.181-11.749 2.405-22.852 3.592-11.125 5.037-15.597 8.629-26.723 4.385-13.578 5.843-17.985-2.49-29.095-3.534-4.711-13.139-8.64-20.236 3.999-8.015 14.273-13.964 24.868-21.979 39.142-4.765 8.487-4.141 11.044-4.126 20.809.03 20.225 1.153 35.374.971 55.731-.132 14.786 2.359 15.365 10.941 27.566 12.717 18.078 18.46 22.814 31.177 40.892 18.971 26.972 14.593 35.083 9.109 55.551h102.929c12.128-39.69 7.218-65.029.992-87.826-.644-2.359-1.303-4.691-1.958-7.009-1.824-6.446-3.621-12.784-5.017-19.295z" fill="#e5ae8c" data-original="#e5ae8c" style=""/><path d="m345.891 414.02c-6.246 22.837-11.206 48.201.949 87.981h102.93c-5.484-20.468-9.862-28.579 9.109-55.551 12.716-18.078 18.46-22.814 31.177-40.892 8.582-12.201 11.073-12.78 10.941-27.566-.182-20.357.941-35.505.971-55.731.014-9.765.639-12.322-4.126-20.809-8.015-14.274-13.964-24.869-21.979-39.142-7.097-12.639-16.703-8.71-20.236-3.999-8.333 11.11-6.875 15.517-2.49 29.095 3.592 11.126 5.036 15.597 8.629 26.723 3.586 11.102 4.282 11.346 2.405 22.852-1.55 9.502-2.822 17.302-4.372 26.804-1.894 11.606-2.421 12.231-12.07 18.887-10.305 7.107-13.536 9.335-23.84 16.441-9.95 6.862-16.364 5.009-19.227-1.859-1.619-3.883-.74-1.774-2.358-5.657-4.387-10.527-.95-14.846 6.068-24.386 7.803-10.608 9.125-12.405 16.929-23.013 4.953-7.004 3.215-14.148-1.213-18.899-5.489-5.89-15.112-8.101-21.241-1.803-14.422 16.065-23.733 26.437-38.155 42.502-6.989 7.786-9.671 11.626-11.868 21.873-1.889 8.8-4.508 17.284-6.933 26.149z" fill="#e5ae8c" data-original="#e5ae8c" style=""/><path d="m363.983 112.888c6.935 4.783 10.666 7.356 15.505 10.693 2.352 1.622 4.965 3.424 8.335 5.748 8.741 6.029 9.996 7.11 11.563 15.884.163.913.329 1.909.508 3.002 1.549 9.502 2.822 17.302 4.372 26.804.249 1.526.453 2.854.61 4.035 1.031 7.726.095 9.187-3.015 18.817-3.592 11.125-5.037 15.597-8.629 26.723-4.385 13.578-5.843 17.985 2.49 29.095 3.534 4.711 13.139 8.64 20.236-3.999 6.546-11.657 11.715-20.862 17.756-31.62 1.355-2.414 2.755-4.906 4.223-7.521 4.765-8.487 4.141-11.044 4.126-20.809-.03-20.225-1.153-35.374-.971-55.731.132-14.786-2.359-15.365-10.941-27.566-12.716-18.078-18.46-22.814-31.177-40.892-18.97-26.972-14.592-35.084-9.108-55.551h-102.929c-8.471 27.723-8.63 48.444-5.834 66.188 2.773 17.601 8.455 32.273 11.815 47.943 2.197 10.247 4.879 14.087 11.868 21.873 13.637 15.191 22.704 25.291 35.844 39.928.756.842 1.526 1.7 2.311 2.574 10.767 11.061 32.308-4.127 23.301-19.395-.001-.001-.003-.001-.002-.003-.257-.435-.538-.87-.845-1.304-7.804-10.608-9.126-12.405-16.929-23.012-7.018-9.541-10.456-13.859-6.068-24.386 1.618-3.883.739-1.774 2.358-5.657 2.862-6.87 9.277-8.723 19.227-1.861z" fill="#ffdcd5" data-original="#ffdcd5" style=""/></g><g><path d="m506.56 296.557-21.979-39.142c-6.25-11.131-14.528-13.279-18.906-13.568-8.143-.54-14.589 3.933-17.952 8.341-.22-10.895-1.386-21.78-3.472-32.459l2.406-4.284c5.308-9.453 5.505-14.071 5.425-22.807-.008-.897-.017-1.862-.019-2.913-.014-9.448-.264-17.852-.506-25.979-.289-9.694-.562-18.851-.465-29.647.136-15.141-2.74-19.698-9.257-28.563-1.03-1.4-2.193-2.983-3.504-4.846-6.552-9.315-11.353-15.247-15.995-20.984-4.637-5.731-9.018-11.145-15.182-19.908-14.834-21.091-13.327-26.545-8.852-42.735.395-1.43.806-2.917 1.223-4.475.805-3.003.167-6.209-1.726-8.676-1.892-2.466-4.824-3.912-7.933-3.912h-102.929c-4.397 0-8.278 2.873-9.563 7.078-7.05 23.074-8.641 41.738-7.589 57.77-4.579-.369-9.159-.583-13.703-.62-4.421-.038-8.86.096-13.287.377 1.02-15.979-.588-34.569-7.603-57.527-1.285-4.205-5.166-7.078-9.564-7.078h-102.929c-3.109 0-6.041 1.446-7.934 3.912-1.893 2.467-2.53 5.673-1.726 8.676.417 1.558.828 3.045 1.223 4.475 4.475 16.19 5.982 21.644-8.852 42.734-6.165 8.763-10.545 14.177-15.182 19.908-4.642 5.737-9.442 11.669-15.995 20.984-1.311 1.863-2.474 3.445-3.504 4.846-6.517 8.865-9.393 13.422-9.257 28.563.097 10.797-.176 19.955-.465 29.651-.242 8.126-.493 16.529-.506 25.976-.001 1.051-.01 2.016-.019 2.913-.08 8.735.118 13.354 5.426 22.807l2.089 3.72c-2.175 10.867-3.417 21.951-3.699 33.048-3.358-4.417-9.813-8.896-17.972-8.367-4.378.289-12.655 2.437-18.905 13.567l-21.98 39.142c-5.308 9.453-5.505 14.071-5.425 22.807.008.897.017 1.862.019 2.913.014 9.447.264 17.85.506 25.976.289 9.696.562 18.854.465 29.651-.136 15.141 2.74 19.699 9.258 28.564 1.03 1.4 2.193 2.982 3.503 4.845 6.552 9.315 11.353 15.247 15.995 20.984 4.637 5.731 9.018 11.145 15.182 19.908 14.834 21.091 13.327 26.545 8.852 42.735-.395 1.43-.806 2.917-1.223 4.475-.805 3.003-.167 6.209 1.726 8.676 1.893 2.466 4.825 3.912 7.934 3.912h102.929c4.397 0 8.278-2.873 9.563-7.078 9.323-30.511 9.106-53.318 5.843-72.514 9.176 3.909 18.641 7.12 28.326 9.555.819.206 1.639.304 2.446.304 4.476 0 8.55-3.026 9.691-7.563 1.347-5.356-1.903-10.79-7.259-12.137-4.111-1.034-8.174-2.234-12.191-3.568.69-3.866 3.242-7.936 13.105-14.625 11.514-7.81 25.696-34.874 20.946-54.832-2.742-11.521-11.506-19.06-24.044-20.683-.924-.12-2.304-1.65-4.466-4.157-3.233-3.749-7.661-8.882-15.139-12.003-10.798-4.506-26.999 3.381-32.655 10.896-1.305 1.733-2.01 3.844-2.01 6.014 0 2.473-.435 2.851-2.851 4.949-2.753 2.393-8.305 7.224-7.69 15.873l-30.179-33.617c-.09-.1-.182-.199-.275-.295-6.22-6.389-15.071-8.307-23.433-5.758-5.858-17.57-8.776-35.919-8.663-54.701.015-2.531.099-5.063.226-7.593l3.435 6.118c3.175 5.656 6.873 8.985 10.318 10.937 3.98 4.506 6.447 8.82 7.487 13.146 5.407 22.511 17.209 26.054 24.092 26.054.163 0 .323-.002.48-.006 11.353-.272 20.469-9.805 23.087-17.548 1.819-.627 5.908-1.266 14.888-1.415 5.719-.095 10.387-2.802 12.807-7.428 1.627-3.111 1.837-6.264 2.006-8.797.064-.971.17-2.562.381-3.138.075-.053.218-.144.461-.259 2.425-1.15 4.719-2.021 6.937-2.862 5.894-2.237 12.573-4.771 15.401-11.9 2.849-7.182-.149-15.105-3.458-21.909-1.786-3.673-4.692-5.833-6.813-7.41-3.216-2.391-5.994-4.457-5.097-15.902.296-3.77-1.068-9.054-9.244-12.818-.655-.301-1.354-.599-2.088-.896l11.119-12.386c1.996 3.321 5.039 6.021 8.904 7.611 1.367.71 3.787 3.761 4.165 5.246.367 2.456 4.627 19.854 13.435 26.85 3.455 2.744 6.836 3.469 9.447 3.469.604 0 1.168-.039 1.682-.101 9.162-1.105 26.338-15.435 34.023-30.911 4.776-6.296 6.351-14.039 4.316-21.454-1.835-6.69-6.307-11.863-11.96-13.835-1.486-.519-3.558-1.433-5.752-2.401-7.274-3.209-14.794-6.524-21.387-5.185-3.11.634-6.856 1.273-10.537 1.345 6.464-7.402 9.956-12.886 12.437-24.459 1.313-6.122 3.005-12.11 4.797-18.451 2.047-7.241 4.17-14.762 5.825-22.902 5.274-.463 10.587-.688 15.871-.647 5.519.045 11.1.378 16.662.969 1.646 8.017 3.741 15.434 5.761 22.58 1.792 6.341 3.485 12.33 4.797 18.451 2.699 12.59 6.584 17.967 14.205 26.457l29.687 33.07c-2.981 2.044-6.657 3.758-10.266 5.435-5.631 2.617-11.455 5.323-15.699 9.741-3.683 3.833-7.347 10.2-5.343 19.514-1.017.699-2.275 1.496-3.317 2.156-5.205 3.296-12.333 7.81-17.42 15.219-2.234 3.254-4.185 5.188-5.907 6.893-3 2.972-7.533 7.462-6.377 15.185.688 4.6 3.175 9.137 8.857 18.212 2.073 3.313 5.351 5.316 9.146 7.635 4.599 2.811 10.322 6.309 10.925 10.518.593 4.135-3.025 10.866-9.928 18.465-8.33 9.171-9.582 18.423-9.165 24.57.537 7.92 4.292 15.528 10.042 20.352 2.152 1.804 6.572 4.738 12.555 4.737 3.717 0 8.038-1.132 12.792-4.371 5.636-3.838 10.754-9.749 16.174-16.006 6.615-7.639 14.114-16.296 20.491-18.047 16.4-4.502 22.414-15.411 26.392-22.63.901-1.635 2.112-3.832 2.813-4.587.07-.024.148-.052.233-.082 6.804-2.45 11.33-2.005 12.071-1.407 9.195 7.754 18.383 5.989 23.873 4.933.989-.19 2.348-.451 3.248-.529.975.724 2.448 1.946 3.599 2.9 1.003.832 2.073 1.717 3.188 2.609-.367 1.176-.746 2.348-1.139 3.517-8.29-2.438-17.03-.492-23.19 5.835-.094.096-.186.195-.275.295l-38.156 42.503c-7.62 8.489-11.504 13.866-14.204 26.456-1.313 6.122-3.005 12.111-4.798 18.452-.286 1.011-.573 2.029-.86 3.052-12.389 6.681-25.545 11.826-39.177 15.271-5.354 1.353-8.598 6.791-7.245 12.146 1.146 4.533 5.217 7.552 9.688 7.552.811 0 1.636-.1 2.458-.307 9.69-2.449 19.16-5.678 28.338-9.61-3.275 19.213-3.506 42.041 5.83 72.594 1.285 4.205 5.166 7.078 9.563 7.078h102.93c3.109 0 6.041-1.446 7.934-3.913 1.893-2.466 2.53-5.673 1.726-8.676-.417-1.557-.828-3.043-1.223-4.474-4.475-16.19-5.982-21.645 8.852-42.735 6.165-8.764 10.545-14.177 15.183-19.909 4.642-5.737 9.442-11.668 15.994-20.983 1.31-1.862 2.473-3.444 3.503-4.844 6.518-8.865 9.394-13.423 9.258-28.564-.097-10.796.176-19.953.465-29.647.242-8.127.493-16.532.506-25.979.001-1.051.011-2.016.019-2.912.079-8.736-.118-13.354-5.427-22.807zm-447.795 23.672c.301-.917.631-1.918.989-3.026l7.84-24.282c2.038 10.661 4.995 21.127 8.863 31.34-4.203 8.021-3.652 17.606 2.08 25.711.036.051.073.102.11.152l17.364 23.603c6.579 8.935 6.499 9.126 4.458 14.023l-2.286 5.483c-.828-.263-2.262-.883-4.392-2.352l-23.838-16.441c-2.518-1.736-5.651-3.898-6.22-4.779-.584-.905-1.231-4.865-1.658-7.485l-4.372-26.804c-1.3-7.965-1.3-7.965 1.062-15.143zm108.82 29.428c2.905-2.524 7.948-6.905 9.357-15.352 2.305-1.478 5.988-2.937 7.798-2.944 2.863 1.335 4.807 3.589 7.236 6.405 3.574 4.144 8.469 9.82 17.044 10.93 5.571.721 6.589 3.102 7.155 5.479 2.554 10.73-7.107 29.845-12.716 33.649-13.145 8.916-18.499 16.531-20.676 23.677-2.744-1.287-5.453-2.649-8.128-4.082-.189-.674-.378-1.346-.567-2.015-.21-6.474 1.839-9.804 4.213-13.652 3.028-4.91 8.666-14.049-.359-25.347-7.767-9.725-10.163-14.331-10.9-16.274.185-.163.374-.327.543-.474zm-65.684-19.275 37.97 42.296c6.301 7.02 7.815 9.281 9.532 17.29 1.447 6.75 3.308 13.332 5.107 19.698 6.318 22.351 12.838 45.414 3.104 82.336h-82.407c3.587-15.666 2.679-27.726-13.905-51.304-6.552-9.314-11.352-15.246-15.993-20.982-4.638-5.732-9.019-11.146-15.184-19.91-1.417-2.013-2.655-3.698-3.748-5.185-5.146-7-5.454-7.419-5.373-16.538.101-11.186-.191-20.967-.473-30.426-.238-7.987-.484-16.246-.498-25.409-.001-1.106-.011-2.122-.02-3.066-.063-6.886-.069-7.606 2.865-12.832l21.98-39.142c1.314-2.34 2.417-3.213 2.793-3.389.217.066.581.31.724.494 5.2 6.934 5.122 7.177 1.012 19.904l-8.667 26.84c-.345 1.07-.664 2.037-.955 2.922-3.302 10.036-3.736 12.77-1.804 24.613l4.372 26.805c2.308 14.147 4.284 17.247 16.263 25.509l23.84 16.441c7.945 5.478 15.315 7.274 21.912 5.333 5.437-1.599 9.778-5.711 12.223-11.577l2.358-5.658c6.472-15.529.315-23.892-6.813-33.575l-17.301-23.518c-.715-1.016-2.566-3.837 1.146-6.924.982-.816 4.14-2.721 5.94-1.046zm-18.553-124.729c-2.935-5.227-2.928-5.946-2.866-12.833.009-.944.018-1.96.02-3.066.014-9.163.26-17.422.498-25.409.282-9.459.574-19.241.473-30.426-.082-9.119.227-9.538 5.372-16.538 1.093-1.487 2.332-3.172 3.749-5.186 6.165-8.764 10.546-14.178 15.184-19.91 4.642-5.736 9.441-11.668 15.993-20.982 16.582-23.577 17.491-35.637 13.903-51.303h82.407c9.734 36.922 3.213 59.985-3.104 82.336-1.799 6.366-3.66 12.948-5.107 19.698-1.717 8.008-3.23 10.27-9.532 17.289l-37.97 42.296c-1.798 1.679-4.957-.229-5.938-1.045-3.71-3.086-1.862-5.906-1.147-6.923l17.304-23.521c7.128-9.682 13.284-18.044 6.813-33.572l-2.358-5.658c-2.445-5.866-6.786-9.978-12.223-11.578-6.597-1.941-13.968-.146-21.912 5.333l-23.84 16.442c-11.978 8.262-13.954 11.36-16.263 25.509l-4.372 26.803c-1.933 11.843-1.499 14.577 1.803 24.612.291.885.609 1.853.955 2.922l8.667 26.842c4.11 12.726 4.188 12.969-1.01 19.901-.145.186-.508.43-.726.496-.376-.176-1.479-1.048-2.793-3.389zm34.264-25.48c.143-.992.329-2.139.558-3.543l4.372-26.803c.428-2.621 1.074-6.581 1.659-7.486.569-.881 3.702-3.043 6.22-4.779l23.839-16.441c2.129-1.468 3.563-2.089 4.392-2.352l2.286 5.484c2.041 4.896 2.12 5.087-4.458 14.021l-17.365 23.604c-.037.05-.074.101-.11.152-2.68 3.79-4.226 7.904-4.685 12.03-6.817.162-12.43 3.195-16.708 6.113zm66.417 57.931c.355.264.801.596 1.113.844.939 1.989 1.486 3.399 1.803 4.368-.996.417-2.205.876-3.209 1.258-2.344.889-5.26 1.996-8.409 3.489-9.569 4.537-11.495 12.73-12.038 17.801-11.319.39-26.195 2.245-28.947 15.073-.725 1.445-3.212 3.567-4.414 3.771-.502-.376-2.816-2.498-4.789-10.71-.862-3.59-2.194-7.076-4.014-10.496 1.487-1.193 2.739-2.507 3.718-3.813 11.416-15.221 8.642-23.813 4.044-38.049l-6.535-20.239c1.299-.882 2.527-1.792 3.696-2.661 7.132-5.302 9.05-6.727 16.045-1.106 6.292 5.055 15.391 8.206 23.419 10.986 1.621.562 3.556 1.231 5.195 1.845.144 15.538 6.417 22.506 13.322 27.639zm46.907-69.048c2.051.304 7.121 2.541 9.902 3.768 2.202.971 4.299 1.896 6.262 2.633.351.723.968 2.672-.97 4.975-.569.676-1.045 1.424-1.417 2.225-3.966 8.538-12.015 15.862-16.751 19.114-1.842-3.34-3.857-8.915-4.424-11.549-.985-7.397-7.315-16.129-14.263-20.031.046.006.094.012.143.02 7.824 1.177 15.549.037 21.518-1.155zm221.312 148.147c.358 1.108.688 2.11.989 3.027 2.361 7.177 2.361 7.177 1.062 15.142l-4.372 26.803c-.428 2.621-1.074 6.581-1.659 7.486-.569.882-3.702 3.043-6.219 4.779l-23.84 16.441c-2.129 1.469-3.564 2.089-4.392 2.352l-2.286-5.484c-2.041-4.896-2.12-5.087 4.458-14.021l17.365-23.604c.037-.05.074-.101.11-.152 5.808-8.213 6.295-17.945 1.908-26.029 3.88-10.227 6.855-20.707 8.918-31.382zm-149.552-195.169c-1.447-6.75-3.308-13.332-5.107-19.698-6.318-22.351-12.839-45.414-3.105-82.336h82.407c-3.587 15.666-2.679 27.726 13.905 51.304 6.552 9.314 11.352 15.246 15.993 20.982 4.638 5.732 9.019 11.146 15.184 19.91 1.417 2.014 2.655 3.699 3.749 5.186 5.146 7 5.454 7.418 5.372 16.538-.1 11.184.191 20.964.473 30.422.238 7.988.484 16.249.498 25.413.001 1.106.011 2.122.02 3.066.063 6.886.069 7.606-2.865 12.832l-21.979 39.143c-1.314 2.34-2.417 3.212-2.793 3.388-.218-.066-.58-.309-.724-.494-5.201-6.933-5.122-7.176-1.012-19.902l8.667-26.842c.346-1.07.664-2.038.956-2.923 3.301-10.036 3.734-12.769 1.802-24.611l-4.372-26.805c-2.309-14.147-4.285-17.246-16.263-25.508l-23.84-16.442c-5.877-4.053-11.44-6.089-16.609-6.089-1.817 0-3.587.252-5.303.757-5.437 1.6-9.778 5.711-12.223 11.578l-2.358 5.657c-6.472 15.529-.316 23.891 6.812 33.573l17.304 23.521c.715 1.017 2.563 3.837-1.147 6.923-.981.815-4.139 2.723-5.938 1.045l-37.97-42.295c-6.304-7.024-7.817-9.285-9.534-17.293zm70.06 38.9-16.67-22.66c-6.578-8.935-6.498-9.126-4.458-14.022l2.286-5.483c.828.263 2.263.884 4.392 2.352l23.839 16.442c2.518 1.736 5.651 3.898 6.22 4.779.585.906 1.231 4.866 1.659 7.485l3.181 19.503c-1.812.115-3.978.231-5.085.137-4.932-3.145-10.113-6.29-15.364-8.533zm45.324 121.148c-4.533-.947-8.607-.163-11.882.466-4.708.906-5.518.841-7.205-.582-9.756-8.229-23.974-4.903-31.733-2.124-7.501 2.419-10.987 8.744-13.793 13.835-3.305 5.996-5.915 10.731-14.171 12.998-12.229 3.357-21.837 14.452-30.315 24.24-3.976 4.59-10.493 12.116-13.605 13.361-1.216-1.051-2.68-3.316-2.884-6.333-.224-3.303 1.127-6.59 4.015-9.77 11.567-12.735 16.448-24.102 14.921-34.751-1.939-13.526-13.429-20.548-20.293-24.744-1.042-.637-2.404-1.469-3.124-1.981-1.248-2-3.44-5.556-4.683-7.95 1.997-1.979 4.937-4.935 8.146-9.609 2.765-4.027 7.272-6.881 11.631-9.641 6.18-3.913 16.521-10.461 12.517-22.046-.561-1.621-.452-2.263-.456-2.263.72-1.537 6.547-4.245 10.028-5.863 5.188-2.411 11.196-5.216 16.396-9.523 8.377 4.363 18.962 3.112 27.333-3.85 3.507-2.916 6.056-6.393 7.623-10.142.519.329 1.039.659 1.554.989 3.368 2.156 7.149 2.702 11.173 2.702 1.584 0 3.214-.091 4.862-.195-.23.724-.495 1.532-.802 2.466-.302.917-.631 1.919-.989 3.027l-8.629 26.723-.039.119c-4.597 14.236-7.372 22.828 4.044 38.049 3.153 4.205 9.128 8.509 16.717 8.509.439 0 .883-.014 1.333-.044 4.378-.289 12.655-2.436 18.906-13.567l2.95-5.254c.088 2.222.147 4.445.147 6.668 0 10.027-.858 19.932-2.553 29.662-2.401-1.788-4.608-3.054-7.14-3.582zm73.907 37.1c-.009.944-.018 1.959-.02 3.065-.014 9.165-.26 17.425-.498 25.413-.282 9.458-.573 19.238-.473 30.422.082 9.12-.227 9.539-5.373 16.54-1.093 1.486-2.331 3.17-3.747 5.184-6.165 8.764-10.545 14.177-15.183 19.909-4.642 5.736-9.442 11.668-15.995 20.983-16.583 23.579-17.492 35.638-13.904 51.304h-82.407c-9.734-36.922-3.213-59.985 3.104-82.335 1.799-6.366 3.66-12.948 5.107-19.699 1.717-8.008 3.23-10.27 9.531-17.289l37.97-42.296c1.8-1.675 4.958.229 5.939 1.045 3.712 3.087 1.861 5.908 1.146 6.924l-17.302 23.52c-7.128 9.682-13.284 18.044-6.813 33.572l2.358 5.658c2.445 5.866 6.786 9.978 12.223 11.577 6.595 1.94 13.967.145 21.912-5.333l23.841-16.441c11.978-8.262 13.953-11.361 16.262-25.509l4.372-26.803c1.932-11.843 1.499-14.576-1.802-24.612-.292-.885-.61-1.853-.956-2.923l-8.667-26.841c-4.11-12.727-4.188-12.97 1.011-19.902.145-.186.508-.43.725-.496.376.176 1.479 1.049 2.793 3.389l21.979 39.142c2.936 5.225 2.93 5.945 2.867 12.832z" fill="#000000" data-original="#000000" style=""/><path d="m256.001 427.774h-.007c-5.523 0-9.996 4.477-9.996 10s4.48 10 10.003 10 10-4.477 10-10-4.477-10-10-10z" fill="#000000" data-original="#000000" style=""/></g></g></g></svg>
